<svg width="254" height="57" viewBox="0 0 254 57" fill="none" xmlns="http://www.w3.org/2000/svg">
<mask id="path-1-outside-1_1532_648" maskUnits="userSpaceOnUse" x="0" y="5" width="254" height="52" fill="black">
<rect fill="white" y="5" width="254" height="52"/>
<path d="M11.52 44.192V35.84H17.28C18.784 35.84 20.128 35.632 21.312 35.216C22.528 34.768 23.552 34.144 24.384 33.344C25.216 32.512 25.856 31.52 26.304 30.368C26.752 29.184 26.976 27.856 26.976 26.384C26.976 24.848 26.752 23.504 26.304 22.352C25.856 21.168 25.216 20.192 24.384 19.424C23.552 18.624 22.528 18.032 21.312 17.648C20.128 17.232 18.784 17.024 17.28 17.024H11.52V8.672H16.896C20.064 8.672 22.832 9.12 25.2 10.016C27.6 10.912 29.6 12.16 31.2 13.76C32.8 15.328 34 17.152 34.8 19.232C35.6 21.312 36 23.52 36 25.856V26.912C36 29.056 35.6 31.168 34.8 33.248C34 35.296 32.8 37.152 31.2 38.816C29.6 40.448 27.6 41.76 25.2 42.752C22.832 43.712 20.064 44.192 16.896 44.192H11.52ZM3.552 44.192V8.672H12.48V44.192H3.552ZM51.9994 44.96C49.7594 44.96 47.7754 44.576 46.0474 43.808C44.3194 43.04 42.8634 42 41.6794 40.688C40.4954 39.376 39.5834 37.904 38.9434 36.272C38.3354 34.64 38.0314 32.96 38.0314 31.232V30.272C38.0314 28.48 38.3354 26.768 38.9434 25.136C39.5834 23.472 40.4794 22 41.6314 20.72C42.8154 19.44 44.2554 18.432 45.9514 17.696C47.6474 16.928 49.5674 16.544 51.7114 16.544C54.5594 16.544 56.9754 17.184 58.9594 18.464C60.9434 19.744 62.4634 21.44 63.5194 23.552C64.5754 25.632 65.1034 27.904 65.1034 30.368V33.152H41.6794V28.448H60.0634L57.0394 30.56C57.0394 29.056 56.8314 27.792 56.4154 26.768C56.0314 25.712 55.4394 24.912 54.6394 24.368C53.8714 23.824 52.8954 23.552 51.7114 23.552C50.5594 23.552 49.5514 23.824 48.6874 24.368C47.8554 24.88 47.2154 25.68 46.7674 26.768C46.3194 27.824 46.0954 29.168 46.0954 30.8C46.0954 32.272 46.3034 33.552 46.7194 34.64C47.1354 35.696 47.7754 36.512 48.6394 37.088C49.5034 37.664 50.6234 37.952 51.9994 37.952C53.2154 37.952 54.2074 37.744 54.9754 37.328C55.7754 36.912 56.3354 36.352 56.6554 35.648H64.6234C64.2394 37.44 63.4714 39.04 62.3194 40.448C61.1994 41.856 59.7594 42.96 57.9994 43.76C56.2714 44.56 54.2714 44.96 51.9994 44.96ZM73.4588 44L65.8748 17.504H74.8028L81.8588 44H73.4588ZM76.2428 44V36.704H84.7388V44H76.2428ZM79.3148 44L85.3148 17.504H93.6668L87.1388 44H79.3148ZM108.533 44.96C106.293 44.96 104.309 44.576 102.581 43.808C100.853 43.04 99.3965 42 98.2125 40.688C97.0285 39.376 96.1165 37.904 95.4765 36.272C94.8685 34.64 94.5645 32.96 94.5645 31.232V30.272C94.5645 28.48 94.8685 26.768 95.4765 25.136C96.1165 23.472 97.0125 22 98.1645 20.72C99.3485 19.44 100.789 18.432 102.485 17.696C104.181 16.928 106.101 16.544 108.245 16.544C111.093 16.544 113.509 17.184 115.493 18.464C117.477 19.744 118.997 21.44 120.053 23.552C121.109 25.632 121.637 27.904 121.637 30.368V33.152H98.2125V28.448H116.597L113.573 30.56C113.573 29.056 113.365 27.792 112.949 26.768C112.565 25.712 111.973 24.912 111.173 24.368C110.405 23.824 109.429 23.552 108.245 23.552C107.093 23.552 106.085 23.824 105.221 24.368C104.389 24.88 103.749 25.68 103.301 26.768C102.853 27.824 102.629 29.168 102.629 30.8C102.629 32.272 102.837 33.552 103.253 34.64C103.669 35.696 104.309 36.512 105.173 37.088C106.037 37.664 107.157 37.952 108.533 37.952C109.749 37.952 110.741 37.744 111.509 37.328C112.309 36.912 112.869 36.352 113.189 35.648H121.157C120.773 37.44 120.005 39.04 118.853 40.448C117.733 41.856 116.293 42.96 114.533 43.76C112.805 44.56 110.805 44.96 108.533 44.96ZM125.665 44V8.96H134.401V44H125.665ZM122.689 15.296V8.96H134.401V15.296H122.689ZM153.084 44.96C150.748 44.96 148.668 44.608 146.844 43.904C145.02 43.2 143.468 42.224 142.188 40.976C140.94 39.728 139.98 38.288 139.308 36.656C138.668 35.024 138.348 33.28 138.348 31.424V30.272C138.348 28.352 138.684 26.56 139.356 24.896C140.06 23.232 141.052 21.776 142.332 20.528C143.612 19.28 145.164 18.304 146.988 17.6C148.812 16.896 150.844 16.544 153.084 16.544C155.356 16.544 157.388 16.896 159.18 17.6C161.004 18.304 162.556 19.28 163.836 20.528C165.116 21.776 166.092 23.232 166.764 24.896C167.468 26.56 167.82 28.352 167.82 30.272V31.424C167.82 33.28 167.484 35.024 166.812 36.656C166.172 38.288 165.212 39.728 163.932 40.976C162.684 42.224 161.148 43.2 159.324 43.904C157.5 44.608 155.42 44.96 153.084 44.96ZM153.084 37.664C154.428 37.664 155.532 37.376 156.396 36.8C157.292 36.224 157.964 35.424 158.412 34.4C158.86 33.344 159.084 32.16 159.084 30.848C159.084 29.472 158.844 28.272 158.364 27.248C157.916 26.192 157.244 25.36 156.348 24.752C155.452 24.144 154.364 23.84 153.084 23.84C151.804 23.84 150.716 24.144 149.82 24.752C148.924 25.36 148.236 26.192 147.756 27.248C147.308 28.272 147.084 29.472 147.084 30.848C147.084 32.16 147.308 33.344 147.756 34.4C148.204 35.424 148.876 36.224 149.772 36.8C150.668 37.376 151.772 37.664 153.084 37.664ZM171.642 53.6V17.504H178.554V28.928H177.786C177.882 26.336 178.394 24.128 179.322 22.304C180.282 20.48 181.578 19.104 183.21 18.176C184.842 17.216 186.714 16.736 188.826 16.736C190.65 16.736 192.298 17.072 193.77 17.744C195.242 18.384 196.506 19.312 197.562 20.528C198.618 21.712 199.418 23.12 199.962 24.752C200.538 26.384 200.826 28.176 200.826 30.128V31.28C200.826 33.232 200.57 35.04 200.058 36.704C199.546 38.336 198.778 39.776 197.754 41.024C196.73 42.24 195.466 43.184 193.962 43.856C192.49 44.528 190.794 44.864 188.874 44.864C186.826 44.864 185.018 44.464 183.45 43.664C181.882 42.832 180.634 41.6 179.706 39.968C178.81 38.304 178.33 36.224 178.266 33.728L180.378 36.32V53.6H171.642ZM186.234 37.664C187.386 37.664 188.394 37.376 189.258 36.8C190.154 36.192 190.842 35.36 191.322 34.304C191.834 33.248 192.09 32.048 192.09 30.704C192.09 29.328 191.834 28.144 191.322 27.152C190.842 26.128 190.17 25.344 189.306 24.8C188.442 24.224 187.418 23.936 186.234 23.936C185.178 23.936 184.186 24.176 183.258 24.656C182.362 25.136 181.626 25.84 181.05 26.768C180.474 27.696 180.186 28.816 180.186 30.128V31.76C180.186 33.008 180.49 34.08 181.098 34.976C181.706 35.84 182.474 36.512 183.402 36.992C184.33 37.44 185.274 37.664 186.234 37.664ZM217.099 44.96C214.859 44.96 212.875 44.576 211.147 43.808C209.419 43.04 207.963 42 206.779 40.688C205.595 39.376 204.683 37.904 204.043 36.272C203.435 34.64 203.131 32.96 203.131 31.232V30.272C203.131 28.48 203.435 26.768 204.043 25.136C204.683 23.472 205.579 22 206.731 20.72C207.915 19.44 209.355 18.432 211.051 17.696C212.747 16.928 214.667 16.544 216.811 16.544C219.659 16.544 222.075 17.184 224.059 18.464C226.043 19.744 227.563 21.44 228.619 23.552C229.675 25.632 230.203 27.904 230.203 30.368V33.152H206.779V28.448H225.163L222.139 30.56C222.139 29.056 221.931 27.792 221.515 26.768C221.131 25.712 220.539 24.912 219.739 24.368C218.971 23.824 217.995 23.552 216.811 23.552C215.659 23.552 214.651 23.824 213.787 24.368C212.955 24.88 212.315 25.68 211.867 26.768C211.419 27.824 211.195 29.168 211.195 30.8C211.195 32.272 211.403 33.552 211.819 34.64C212.235 35.696 212.875 36.512 213.739 37.088C214.603 37.664 215.723 37.952 217.099 37.952C218.315 37.952 219.307 37.744 220.075 37.328C220.875 36.912 221.435 36.352 221.755 35.648H229.723C229.339 37.44 228.571 39.04 227.419 40.448C226.299 41.856 224.859 42.96 223.099 43.76C221.371 44.56 219.371 44.96 217.099 44.96ZM233.847 44V17.504H240.759V29.024H240.663C240.663 25.312 241.431 22.4 242.967 20.288C244.535 18.176 246.775 17.12 249.687 17.12H250.743V24.608H248.727C246.775 24.608 245.255 25.136 244.167 26.192C243.111 27.248 242.583 28.768 242.583 30.752V44H233.847Z"/>
</mask>
<path d="M11.52 44.192H8.52V47.192H11.52V44.192ZM11.52 35.84V32.84H8.52V35.84H11.52ZM21.312 35.216L22.3065 38.0464L22.3278 38.0389L22.3491 38.031L21.312 35.216ZM24.384 33.344L26.4633 35.5065L26.4845 35.4861L26.5053 35.4653L24.384 33.344ZM26.304 30.368L29.1 31.4553L29.105 31.4425L29.1099 31.4297L26.304 30.368ZM26.304 22.352L23.4981 23.4137L23.503 23.4265L23.508 23.4393L26.304 22.352ZM24.384 19.424L22.3047 21.5865L22.3267 21.6077L22.3492 21.6284L24.384 19.424ZM21.312 17.648L20.3175 20.4784L20.3628 20.4943L20.4086 20.5087L21.312 17.648ZM11.52 17.024H8.52V20.024H11.52V17.024ZM11.52 8.672V5.672H8.52V8.672H11.52ZM25.2 10.016L24.1383 12.8219L24.1507 12.8265L25.2 10.016ZM31.2 13.76L29.0787 15.8813L29.0894 15.892L29.1002 15.9026L31.2 13.76ZM34.8 19.232L32 20.3089L32 20.3089L34.8 19.232ZM34.8 33.248L37.5944 34.3396L37.5972 34.3323L37.6 34.3249L34.8 33.248ZM31.2 38.816L33.3422 40.9162L33.3524 40.9058L33.3625 40.8953L31.2 38.816ZM25.2 42.752L26.3271 45.5322L26.3366 45.5284L26.346 45.5245L25.2 42.752ZM3.552 44.192H0.552V47.192H3.552V44.192ZM3.552 8.672V5.672H0.552V8.672H3.552ZM12.48 8.672H15.48V5.672H12.48V8.672ZM12.48 44.192V47.192H15.48V44.192H12.48ZM14.52 44.192V35.84H8.52V44.192H14.52ZM11.52 38.84H17.28V32.84H11.52V38.84ZM17.28 38.84C19.0574 38.84 20.7466 38.5944 22.3065 38.0464L20.3175 32.3856C19.5094 32.6696 18.5106 32.84 17.28 32.84V38.84ZM22.3491 38.031C23.9061 37.4574 25.2981 36.6269 26.4633 35.5065L22.3047 31.1815C21.8059 31.6611 21.1499 32.0786 20.2749 32.401L22.3491 38.031ZM26.5053 35.4653C27.6463 34.3244 28.509 32.9751 29.1 31.4553L23.508 29.2807C23.203 30.0649 22.7857 30.6996 22.2627 31.2227L26.5053 35.4653ZM29.1099 31.4297C29.7053 29.8561 29.976 28.1606 29.976 26.384H23.976C23.976 27.5513 23.7987 28.5119 23.4981 29.3063L29.1099 31.4297ZM29.976 26.384C29.976 24.5631 29.7111 22.8361 29.1 21.2647L23.508 23.4393C23.7929 24.1719 23.976 25.1329 23.976 26.384H29.976ZM29.1099 21.2903C28.5167 19.7227 27.6317 18.3391 26.4188 17.2196L22.3492 21.6284C22.8003 22.0449 23.1953 22.6133 23.4981 23.4137L29.1099 21.2903ZM26.4633 17.2615C25.2647 16.109 23.8251 15.2956 22.2154 14.7873L20.4086 20.5087C21.2309 20.7684 21.8393 21.139 22.3047 21.5865L26.4633 17.2615ZM22.3065 14.8176C20.7466 14.2696 19.0574 14.024 17.28 14.024V20.024C18.5106 20.024 19.5094 20.1944 20.3175 20.4784L22.3065 14.8176ZM17.28 14.024H11.52V20.024H17.28V14.024ZM14.52 17.024V8.672H8.52V17.024H14.52ZM11.52 11.672H16.896V5.672H11.52V11.672ZM16.896 11.672C19.7889 11.672 22.1828 12.0819 24.1383 12.8219L26.2617 7.21014C23.4812 6.15805 20.3391 5.672 16.896 5.672V11.672ZM24.1507 12.8265C26.2014 13.5921 27.8203 14.623 29.0787 15.8813L33.3213 11.6387C31.3797 9.69702 28.9986 8.23189 26.2493 7.20548L24.1507 12.8265ZM29.1002 15.9026C30.3948 17.1713 31.3551 18.6324 32 20.3089L37.6 18.1551C36.6449 15.6716 35.2052 13.4847 33.2998 11.6174L29.1002 15.9026ZM32 20.3089C32.6615 22.0289 33 23.8702 33 25.856H39C39 23.1698 38.5385 20.5951 37.6 18.1551L32 20.3089ZM33 25.856V26.912H39V25.856H33ZM33 26.912C33 28.6733 32.6731 30.421 32 32.1711L37.6 34.3249C38.5269 31.915 39 29.4387 39 26.912H33ZM32.0056 32.1564C31.3563 33.8186 30.3778 35.3427 29.0375 36.7367L33.3625 40.8953C35.2222 38.9613 36.6437 36.7734 37.5944 34.3396L32.0056 32.1564ZM29.0578 36.7158C27.7772 38.022 26.1308 39.1211 24.054 39.9795L26.346 45.5245C29.0692 44.3989 31.4228 42.874 33.3422 40.9162L29.0578 36.7158ZM24.0729 39.9718C22.1376 40.7564 19.7673 41.192 16.896 41.192V47.192C20.3607 47.192 23.5265 46.6676 26.3271 45.5322L24.0729 39.9718ZM16.896 41.192H11.52V47.192H16.896V41.192ZM6.552 44.192V8.672H0.552V44.192H6.552ZM3.552 11.672H12.48V5.672H3.552V11.672ZM9.48 8.672V44.192H15.48V8.672H9.48ZM12.48 41.192H3.552V47.192H12.48V41.192ZM46.0474 43.808L44.829 46.5494L44.829 46.5494L46.0474 43.808ZM41.6794 40.688L43.9066 38.6781L43.9066 38.6781L41.6794 40.688ZM38.9434 36.272L36.1321 37.3193L36.1411 37.3434L36.1505 37.3673L38.9434 36.272ZM38.9434 25.136L36.1433 24.0591L36.1377 24.0738L36.1321 24.0887L38.9434 25.136ZM41.6314 20.72L39.4291 18.6829L39.4152 18.6979L39.4015 18.7131L41.6314 20.72ZM45.9514 17.696L47.1457 20.448L47.1674 20.4386L47.1889 20.4289L45.9514 17.696ZM58.9594 18.464L57.333 20.9849L57.333 20.9849L58.9594 18.464ZM63.5194 23.552L60.8361 24.8936L60.8402 24.9019L60.8444 24.9101L63.5194 23.552ZM65.1034 33.152V36.152H68.1034V33.152H65.1034ZM41.6794 33.152H38.6794V36.152H41.6794V33.152ZM41.6794 28.448V25.448H38.6794V28.448H41.6794ZM60.0634 28.448L61.7811 30.9075L69.5982 25.448H60.0634V28.448ZM57.0394 30.56H54.0394V36.3145L58.7571 33.0195L57.0394 30.56ZM56.4154 26.768L53.596 27.7932L53.615 27.8455L53.636 27.8971L56.4154 26.768ZM54.6394 24.368L52.9053 26.8161L52.9287 26.8327L52.9524 26.8488L54.6394 24.368ZM48.6874 24.368L50.2597 26.923L50.2728 26.9149L50.2858 26.9067L48.6874 24.368ZM46.7674 26.768L49.5291 27.9396L49.5353 27.925L49.5414 27.9102L46.7674 26.768ZM46.7194 34.64L43.9172 35.7114L43.9226 35.7255L43.9282 35.7396L46.7194 34.64ZM48.6394 37.088L50.3035 34.5918L50.3035 34.5918L48.6394 37.088ZM54.9754 37.328L53.5913 34.6663L53.5688 34.678L53.5465 34.6901L54.9754 37.328ZM56.6554 35.648V32.648H54.7236L53.9243 34.4066L56.6554 35.648ZM64.6234 35.648L67.5568 36.2766L68.3343 32.648H64.6234V35.648ZM62.3194 40.448L59.9975 38.5483L59.9844 38.5643L59.9716 38.5804L62.3194 40.448ZM57.9994 43.76L56.758 41.0289L56.7485 41.0332L56.739 41.0376L57.9994 43.76ZM51.9994 41.96C50.1027 41.96 48.5461 41.6356 47.2658 41.0666L44.829 46.5494C47.0047 47.5164 49.416 47.96 51.9994 47.96V41.96ZM47.2658 41.0666C45.8943 40.457 44.7899 39.6569 43.9066 38.6781L39.4522 42.6979C40.9369 44.3431 42.7445 45.623 44.829 46.5494L47.2658 41.0666ZM43.9066 38.6781C42.9627 37.6322 42.2433 36.4695 41.7363 35.1767L36.1505 37.3673C36.9235 39.3385 38.0281 41.1198 39.4522 42.6979L43.9066 38.6781ZM41.7546 35.2247C41.2704 33.9251 41.0314 32.5996 41.0314 31.232H35.0314C35.0314 33.3204 35.4003 35.3549 36.1321 37.3193L41.7546 35.2247ZM41.0314 31.232V30.272H35.0314V31.232H41.0314ZM41.0314 30.272C41.0314 28.827 41.2751 27.4705 41.7546 26.1833L36.1321 24.0887C35.3957 26.0655 35.0314 28.133 35.0314 30.272H41.0314ZM41.7434 26.2129C42.2565 24.8789 42.9632 23.7247 43.8613 22.7269L39.4015 18.7131C37.9956 20.2753 36.9102 22.0651 36.1433 24.0591L41.7434 26.2129ZM43.8337 22.7571C44.7181 21.801 45.8082 21.0284 47.1457 20.448L44.7571 14.944C42.7026 15.8356 40.9127 17.079 39.4291 18.6829L43.8337 22.7571ZM47.1889 20.4289C48.4414 19.8617 49.9298 19.544 51.7114 19.544V13.544C49.205 13.544 46.8534 13.9943 44.7139 14.9631L47.1889 20.4289ZM51.7114 19.544C54.1026 19.544 55.9257 20.077 57.333 20.9849L60.5858 15.9431C58.025 14.291 55.0161 13.544 51.7114 13.544V19.544ZM57.333 20.9849C58.8654 21.9735 60.0204 23.2622 60.8361 24.8936L66.2027 22.2104C64.9064 19.6178 63.0214 17.5145 60.5858 15.9431L57.333 20.9849ZM60.8444 24.9101C61.6747 26.5456 62.1034 28.3486 62.1034 30.368H68.1034C68.1034 27.4594 67.4761 24.7184 66.1944 22.1939L60.8444 24.9101ZM62.1034 30.368V33.152H68.1034V30.368H62.1034ZM65.1034 30.152H41.6794V36.152H65.1034V30.152ZM44.6794 33.152V28.448H38.6794V33.152H44.6794ZM41.6794 31.448H60.0634V25.448H41.6794V31.448ZM58.3456 25.9885L55.3216 28.1005L58.7571 33.0195L61.7811 30.9075L58.3456 25.9885ZM60.0394 30.56C60.0394 28.7998 59.7987 27.1256 59.1948 25.6389L53.636 27.8971C53.864 28.4584 54.0394 29.3122 54.0394 30.56H60.0394ZM59.2348 25.7428C58.6714 24.1936 57.728 22.8404 56.3263 21.8872L52.9524 26.8488C53.1508 26.9836 53.3913 27.2304 53.596 27.7932L59.2348 25.7428ZM56.3734 21.9199C54.9811 20.9337 53.3553 20.552 51.7114 20.552V26.552C52.4355 26.552 52.7617 26.7143 52.9053 26.8161L56.3734 21.9199ZM51.7114 20.552C50.0683 20.552 48.491 20.9465 47.0889 21.8293L50.2858 26.9067C50.6117 26.7015 51.0504 26.552 51.7114 26.552V20.552ZM47.1151 21.813C45.6404 22.7205 44.6322 24.0743 43.9933 25.6257L49.5414 27.9102C49.7986 27.2857 50.0703 27.0395 50.2597 26.923L47.1151 21.813ZM44.0056 25.5963C43.3488 27.1446 43.0954 28.9228 43.0954 30.8H49.0954C49.0954 29.4132 49.2899 28.5034 49.5291 27.9396L44.0056 25.5963ZM43.0954 30.8C43.0954 32.5456 43.341 34.2044 43.9172 35.7114L49.5215 33.5686C49.2657 32.8996 49.0954 31.9984 49.0954 30.8H43.0954ZM43.9282 35.7396C44.5467 37.3097 45.5544 38.6369 46.9753 39.5842L50.3035 34.5918C49.9964 34.3871 49.7241 34.0823 49.5106 33.5404L43.9282 35.7396ZM46.9753 39.5841C48.4689 40.5799 50.2202 40.952 51.9994 40.952V34.952C51.0265 34.952 50.5379 34.7481 50.3035 34.5918L46.9753 39.5841ZM51.9994 40.952C53.529 40.952 55.0592 40.6944 56.4042 39.9659L53.5465 34.6901C53.3556 34.7936 52.9017 34.952 51.9994 34.952V40.952ZM56.3594 39.9897C57.6515 39.3178 58.7444 38.3021 59.3865 36.8894L53.9243 34.4066C53.9167 34.4232 53.9059 34.4428 53.8741 34.4747C53.8384 34.5103 53.7564 34.5805 53.5913 34.6663L56.3594 39.9897ZM56.6554 38.648H64.6234V32.648H56.6554V38.648ZM61.69 35.0194C61.4051 36.3487 60.8452 37.5122 59.9975 38.5483L64.6412 42.3477C66.0975 40.5678 67.0736 38.5313 67.5568 36.2766L61.69 35.0194ZM59.9716 38.5804C59.1687 39.5898 58.119 40.4102 56.758 41.0289L59.2408 46.4911C61.3997 45.5098 63.2301 44.1222 64.6672 42.3156L59.9716 38.5804ZM56.739 41.0376C55.4749 41.6228 53.919 41.96 51.9994 41.96V47.96C54.6237 47.96 57.0678 47.4972 59.2597 46.4824L56.739 41.0376ZM73.4588 44L70.5746 44.8255L71.197 47H73.4588V44ZM65.8748 17.504V14.504H61.8956L62.9906 18.3295L65.8748 17.504ZM74.8028 17.504L77.7017 16.732L77.1084 14.504H74.8028V17.504ZM81.8588 44V47H85.7622L84.7577 43.228L81.8588 44ZM76.2428 44H73.2428V47H76.2428V44ZM76.2428 36.704V33.704H73.2428V36.704H76.2428ZM84.7388 36.704H87.7388V33.704H84.7388V36.704ZM84.7388 44V47H87.7388V44H84.7388ZM79.3148 44L76.3888 43.3374L75.5594 47H79.3148V44ZM85.3148 17.504V14.504H82.9181L82.3888 16.8414L85.3148 17.504ZM93.6668 17.504L96.5796 18.2217L97.4956 14.504H93.6668V17.504ZM87.1388 44V47H89.4893L90.0516 44.7177L87.1388 44ZM76.3429 43.1745L68.7589 16.6785L62.9906 18.3295L70.5746 44.8255L76.3429 43.1745ZM65.8748 20.504H74.8028V14.504H65.8748V20.504ZM71.9038 18.276L78.9598 44.772L84.7577 43.228L77.7017 16.732L71.9038 18.276ZM81.8588 41H73.4588V47H81.8588V41ZM79.2428 44V36.704H73.2428V44H79.2428ZM76.2428 39.704H84.7388V33.704H76.2428V39.704ZM81.7388 36.704V44H87.7388V36.704H81.7388ZM84.7388 41H76.2428V47H84.7388V41ZM82.2407 44.6626L88.2407 18.1666L82.3888 16.8414L76.3888 43.3374L82.2407 44.6626ZM85.3148 20.504H93.6668V14.504H85.3148V20.504ZM90.7539 16.7863L84.2259 43.2823L90.0516 44.7177L96.5796 18.2217L90.7539 16.7863ZM87.1388 41H79.3148V47H87.1388V41ZM102.581 43.808L101.362 46.5494L101.362 46.5494L102.581 43.808ZM98.2125 40.688L100.44 38.6781L100.44 38.6781L98.2125 40.688ZM95.4765 36.272L92.6653 37.3193L92.6742 37.3434L92.6836 37.3673L95.4765 36.272ZM95.4765 25.136L92.6765 24.0591L92.6708 24.0738L92.6653 24.0887L95.4765 25.136ZM98.1645 20.72L95.9622 18.6829L95.9483 18.6979L95.9346 18.7131L98.1645 20.72ZM102.485 17.696L103.679 20.448L103.7 20.4386L103.722 20.4289L102.485 17.696ZM115.493 18.464L113.866 20.9849L113.866 20.9849L115.493 18.464ZM120.053 23.552L117.369 24.8936L117.373 24.9019L117.378 24.9101L120.053 23.552ZM121.637 33.152V36.152H124.637V33.152H121.637ZM98.2125 33.152H95.2125V36.152H98.2125V33.152ZM98.2125 28.448V25.448H95.2125V28.448H98.2125ZM116.597 28.448L118.314 30.9075L126.131 25.448H116.597V28.448ZM113.573 30.56H110.573V36.3145L115.29 33.0195L113.573 30.56ZM112.949 26.768L110.129 27.7932L110.148 27.8455L110.169 27.8971L112.949 26.768ZM111.173 24.368L109.438 26.8161L109.462 26.8327L109.486 26.8488L111.173 24.368ZM105.221 24.368L106.793 26.923L106.806 26.9149L106.819 26.9067L105.221 24.368ZM103.301 26.768L106.062 27.9396L106.068 27.925L106.075 27.9102L103.301 26.768ZM103.253 34.64L100.45 35.7114L100.456 35.7255L100.461 35.7396L103.253 34.64ZM105.173 37.088L106.837 34.5918L106.837 34.5918L105.173 37.088ZM111.509 37.328L110.124 34.6663L110.102 34.678L110.08 34.6901L111.509 37.328ZM113.189 35.648V32.648H111.257L110.457 34.4066L113.189 35.648ZM121.157 35.648L124.09 36.2766L124.867 32.648H121.157V35.648ZM118.853 40.448L116.531 38.5483L116.518 38.5643L116.505 38.5804L118.853 40.448ZM114.533 43.76L113.291 41.0289L113.282 41.0332L113.272 41.0376L114.533 43.76ZM108.533 41.96C106.636 41.96 105.079 41.6356 103.799 41.0666L101.362 46.5494C103.538 47.5164 105.949 47.96 108.533 47.96V41.96ZM103.799 41.0666C102.427 40.457 101.323 39.6569 100.44 38.6781L95.9853 42.6979C97.47 44.3431 99.2776 45.623 101.362 46.5494L103.799 41.0666ZM100.44 38.6781C99.4958 37.6322 98.7764 36.4695 98.2694 35.1767L92.6836 37.3673C93.4566 39.3385 94.5612 41.1198 95.9853 42.6979L100.44 38.6781ZM98.2877 35.2247C97.8036 33.9251 97.5645 32.5996 97.5645 31.232H91.5645C91.5645 33.3204 91.9334 35.3549 92.6653 37.3193L98.2877 35.2247ZM97.5645 31.232V30.272H91.5645V31.232H97.5645ZM97.5645 30.272C97.5645 28.827 97.8082 27.4705 98.2877 26.1833L92.6653 24.0887C91.9288 26.0655 91.5645 28.133 91.5645 30.272H97.5645ZM98.2765 26.2129C98.7896 24.8789 99.4963 23.7247 100.394 22.7269L95.9346 18.7131C94.5287 20.2753 93.4434 22.0651 92.6765 24.0591L98.2765 26.2129ZM100.367 22.7571C101.251 21.801 102.341 21.0284 103.679 20.448L101.29 14.944C99.2357 15.8356 97.4458 17.079 95.9622 18.6829L100.367 22.7571ZM103.722 20.4289C104.975 19.8617 106.463 19.544 108.245 19.544V13.544C105.738 13.544 103.386 13.9943 101.247 14.9631L103.722 20.4289ZM108.245 19.544C110.636 19.544 112.459 20.077 113.866 20.9849L117.119 15.9431C114.558 14.291 111.549 13.544 108.245 13.544V19.544ZM113.866 20.9849C115.399 21.9735 116.554 23.2622 117.369 24.8936L122.736 22.2104C121.439 19.6178 119.554 17.5145 117.119 15.9431L113.866 20.9849ZM117.378 24.9101C118.208 26.5456 118.637 28.3486 118.637 30.368H124.637C124.637 27.4594 124.009 24.7184 122.728 22.1939L117.378 24.9101ZM118.637 30.368V33.152H124.637V30.368H118.637ZM121.637 30.152H98.2125V36.152H121.637V30.152ZM101.213 33.152V28.448H95.2125V33.152H101.213ZM98.2125 31.448H116.597V25.448H98.2125V31.448ZM114.879 25.9885L111.855 28.1005L115.29 33.0195L118.314 30.9075L114.879 25.9885ZM116.573 30.56C116.573 28.7998 116.332 27.1256 115.728 25.6389L110.169 27.8971C110.397 28.4584 110.573 29.3122 110.573 30.56H116.573ZM115.768 25.7428C115.205 24.1936 114.261 22.8404 112.859 21.8872L109.486 26.8488C109.684 26.9836 109.924 27.2304 110.129 27.7932L115.768 25.7428ZM112.907 21.9199C111.514 20.9337 109.888 20.552 108.245 20.552V26.552C108.969 26.552 109.295 26.7143 109.438 26.8161L112.907 21.9199ZM108.245 20.552C106.601 20.552 105.024 20.9465 103.622 21.8293L106.819 26.9067C107.145 26.7015 107.584 26.552 108.245 26.552V20.552ZM103.648 21.813C102.174 22.7205 101.165 24.0743 100.526 25.6257L106.075 27.9102C106.332 27.2857 106.603 27.0395 106.793 26.923L103.648 21.813ZM100.539 25.5963C99.8819 27.1446 99.6285 28.9228 99.6285 30.8H105.629C105.629 29.4132 105.823 28.5034 106.062 27.9396L100.539 25.5963ZM99.6285 30.8C99.6285 32.5456 99.8741 34.2044 100.45 35.7114L106.055 33.5686C105.799 32.8996 105.629 31.9984 105.629 30.8H99.6285ZM100.461 35.7396C101.08 37.3097 102.087 38.6369 103.508 39.5842L106.837 34.5918C106.53 34.3871 106.257 34.0823 106.044 33.5404L100.461 35.7396ZM103.508 39.5841C105.002 40.5799 106.753 40.952 108.533 40.952V34.952C107.56 34.952 107.071 34.7481 106.837 34.5918L103.508 39.5841ZM108.533 40.952C110.062 40.952 111.592 40.6944 112.937 39.9659L110.08 34.6901C109.889 34.7936 109.435 34.952 108.533 34.952V40.952ZM112.893 39.9897C114.185 39.3178 115.277 38.3021 115.92 36.8894L110.457 34.4066C110.45 34.4232 110.439 34.4428 110.407 34.4747C110.372 34.5103 110.29 34.5805 110.124 34.6663L112.893 39.9897ZM113.189 38.648H121.157V32.648H113.189V38.648ZM118.223 35.0194C117.938 36.3487 117.378 37.5122 116.531 38.5483L121.174 42.3477C122.631 40.5678 123.607 38.5313 124.09 36.2766L118.223 35.0194ZM116.505 38.5804C115.702 39.5898 114.652 40.4102 113.291 41.0289L115.774 46.4911C117.933 45.5098 119.763 44.1222 121.2 42.3156L116.505 38.5804ZM113.272 41.0376C112.008 41.6228 110.452 41.96 108.533 41.96V47.96C111.157 47.96 113.601 47.4972 115.793 46.4824L113.272 41.0376ZM125.665 44H122.665V47H125.665V44ZM125.665 8.96V5.96H122.665V8.96H125.665ZM134.401 8.96H137.401V5.96H134.401V8.96ZM134.401 44V47H137.401V44H134.401ZM122.689 15.296H119.689V18.296H122.689V15.296ZM122.689 8.96V5.96H119.689V8.96H122.689ZM134.401 8.96H137.401V5.96H134.401V8.96ZM134.401 15.296V18.296H137.401V15.296H134.401ZM128.665 44V8.96H122.665V44H128.665ZM125.665 11.96H134.401V5.96H125.665V11.96ZM131.401 8.96V44H137.401V8.96H131.401ZM134.401 41H125.665V47H134.401V41ZM125.689 15.296V8.96H119.689V15.296H125.689ZM122.689 11.96H134.401V5.96H122.689V11.96ZM131.401 8.96V15.296H137.401V8.96H131.401ZM134.401 12.296H122.689V18.296H134.401V12.296ZM146.844 43.904L147.924 41.1052L147.924 41.1052L146.844 43.904ZM142.188 40.976L140.066 43.0973L140.08 43.1107L140.093 43.124L142.188 40.976ZM139.308 36.656L136.515 37.7513L136.524 37.7748L136.534 37.7982L139.308 36.656ZM139.356 24.896L136.593 23.7271L136.583 23.7498L136.574 23.7726L139.356 24.896ZM142.332 20.528L140.237 18.38L140.237 18.38L142.332 20.528ZM159.18 17.6L158.083 20.3923L158.091 20.3955L158.099 20.3988L159.18 17.6ZM163.836 20.528L161.741 22.676L161.741 22.676L163.836 20.528ZM166.764 24.896L163.982 26.0194L163.991 26.0422L164.001 26.0649L166.764 24.896ZM166.812 36.656L164.038 35.5138L164.028 35.5372L164.019 35.5607L166.812 36.656ZM163.932 40.976L161.837 38.828L161.824 38.8413L161.81 38.8547L163.932 40.976ZM159.324 43.904L158.243 41.1052L158.243 41.1052L159.324 43.904ZM156.396 36.8L154.773 34.2765L154.752 34.29L154.732 34.3038L156.396 36.8ZM158.412 34.4L161.16 35.6025L161.167 35.5871L161.173 35.5716L158.412 34.4ZM158.364 27.248L155.602 28.4197L155.624 28.4709L155.647 28.5213L158.364 27.248ZM149.82 24.752L148.135 22.2696L148.135 22.2696L149.82 24.752ZM147.756 27.248L145.025 26.0066L145.016 26.026L145.007 26.0455L147.756 27.248ZM147.756 34.4L144.994 35.5716L145 35.5871L145.007 35.6025L147.756 34.4ZM153.084 41.96C151.047 41.96 149.343 41.6531 147.924 41.1052L145.763 46.7028C147.992 47.5629 150.448 47.96 153.084 47.96V41.96ZM147.924 41.1052C146.443 40.5336 145.245 39.7672 144.282 38.828L140.093 43.124C141.69 44.6808 143.597 45.8664 145.763 46.7028L147.924 41.1052ZM144.309 38.8547C143.341 37.8867 142.603 36.7795 142.082 35.5138L136.534 37.7982C137.356 39.7965 138.538 41.5693 140.066 43.0973L144.309 38.8547ZM142.101 35.5607C141.605 34.2978 141.348 32.9275 141.348 31.424H135.348C135.348 33.6325 135.73 35.7502 136.515 37.7513L142.101 35.5607ZM141.348 31.424V30.272H135.348V31.424H141.348ZM141.348 30.272C141.348 28.7098 141.619 27.302 142.137 26.0194L136.574 23.7726C135.748 25.818 135.348 27.9942 135.348 30.272H141.348ZM142.119 26.0649C142.669 24.7645 143.435 23.6423 144.426 22.676L140.237 18.38C138.668 19.9097 137.451 21.6995 136.593 23.7271L142.119 26.0649ZM144.426 22.676C145.389 21.7368 146.587 20.9704 148.068 20.3988L145.907 14.8012C143.741 15.6376 141.834 16.8232 140.237 18.38L144.426 22.676ZM148.068 20.3988C149.501 19.8457 151.16 19.544 153.084 19.544V13.544C150.527 13.544 148.122 13.9463 145.907 14.8012L148.068 20.3988ZM153.084 19.544C155.046 19.544 156.697 19.8479 158.083 20.3923L160.277 14.8077C158.078 13.9441 155.665 13.544 153.084 13.544V19.544ZM158.099 20.3988C159.581 20.9704 160.778 21.7368 161.741 22.676L165.93 18.38C164.333 16.8232 162.427 15.6376 160.26 14.8012L158.099 20.3988ZM161.741 22.676C162.722 23.6326 163.465 24.7393 163.982 26.0194L169.545 23.7726C168.718 21.7247 167.509 19.9194 165.93 18.38L161.741 22.676ZM164.001 26.0649C164.539 27.3363 164.82 28.7281 164.82 30.272H170.82C170.82 27.9759 170.397 25.7837 169.527 23.7271L164.001 26.0649ZM164.82 30.272V31.424H170.82V30.272H164.82ZM164.82 31.424C164.82 32.9087 164.553 34.2626 164.038 35.5138L169.586 37.7982C170.414 35.7854 170.82 33.6513 170.82 31.424H164.82ZM164.019 35.5607C163.537 36.7882 162.819 37.8713 161.837 38.828L166.026 43.124C167.605 41.5847 168.806 39.7878 169.605 37.7513L164.019 35.5607ZM161.81 38.8547C160.889 39.7762 159.719 40.5356 158.243 41.1052L160.404 46.7028C162.576 45.8644 164.478 44.6718 166.053 43.0973L161.81 38.8547ZM158.243 41.1052C156.824 41.6531 155.12 41.96 153.084 41.96V47.96C155.719 47.96 158.175 47.5629 160.404 46.7028L158.243 41.1052ZM153.084 40.664C154.847 40.664 156.577 40.2849 158.06 39.2962L154.732 34.3038C154.487 34.4671 154.008 34.664 153.084 34.664V40.664ZM158.018 39.3235C159.437 38.4115 160.487 37.14 161.16 35.6025L155.663 33.1975C155.44 33.708 155.147 34.0365 154.773 34.2765L158.018 39.3235ZM161.173 35.5716C161.8 34.0955 162.084 32.5051 162.084 30.848H156.084C156.084 31.8149 155.92 32.5925 155.65 33.2284L161.173 35.5716ZM162.084 30.848C162.084 29.1255 161.783 27.474 161.08 25.9747L155.647 28.5213C155.904 29.07 156.084 29.8185 156.084 30.848H162.084ZM161.125 26.0763C160.466 24.522 159.435 23.2214 158.032 22.2696L154.663 27.2344C155.052 27.4986 155.365 27.862 155.602 28.4197L161.125 26.0763ZM158.032 22.2696C156.554 21.2666 154.853 20.84 153.084 20.84V26.84C153.875 26.84 154.349 27.0214 154.663 27.2344L158.032 22.2696ZM153.084 20.84C151.315 20.84 149.613 21.2666 148.135 22.2696L151.504 27.2344C151.818 27.0214 152.293 26.84 153.084 26.84V20.84ZM148.135 22.2696C146.75 23.2094 145.716 24.4858 145.025 26.0066L150.487 28.4894C150.755 27.8982 151.097 27.5106 151.504 27.2344L148.135 22.2696ZM145.007 26.0455C144.36 27.5256 144.084 29.1512 144.084 30.848H150.084C150.084 29.7928 150.256 29.0184 150.504 28.4505L145.007 26.0455ZM144.084 30.848C144.084 32.5051 144.368 34.0955 144.994 35.5716L150.517 33.2284C150.248 32.5925 150.084 31.8149 150.084 30.848H144.084ZM145.007 35.6025C145.68 37.14 146.731 38.4115 148.149 39.3235L151.394 34.2765C151.021 34.0365 150.727 33.708 150.504 33.1975L145.007 35.6025ZM148.149 39.3235C149.631 40.2758 151.33 40.664 153.084 40.664V34.664C152.213 34.664 151.705 34.4762 151.394 34.2765L148.149 39.3235ZM171.642 53.6H168.642V56.6H171.642V53.6ZM171.642 17.504V14.504H168.642V17.504H171.642ZM178.554 17.504H181.554V14.504H178.554V17.504ZM178.554 28.928V31.928H181.554V28.928H178.554ZM177.786 28.928L174.788 28.817L174.673 31.928H177.786V28.928ZM179.322 22.304L176.668 20.9068L176.658 20.9251L176.649 20.9436L179.322 22.304ZM183.21 18.176L184.693 20.7839L184.712 20.773L184.731 20.7618L183.21 18.176ZM193.77 17.744L192.525 20.4731L192.549 20.4844L192.574 20.4952L193.77 17.744ZM197.562 20.528L195.297 22.4951L195.31 22.51L195.323 22.5248L197.562 20.528ZM199.962 24.752L197.116 25.7007L197.125 25.7256L197.133 25.7505L199.962 24.752ZM200.058 36.704L202.921 37.602L202.923 37.5941L202.926 37.5863L200.058 36.704ZM197.754 41.024L200.049 42.9564L200.061 42.9418L200.074 42.9269L197.754 41.024ZM193.962 43.856L192.739 41.117L192.728 41.1219L192.717 41.1269L193.962 43.856ZM183.45 43.664L182.044 46.314L182.066 46.3253L182.087 46.3363L183.45 43.664ZM179.706 39.968L177.065 41.3903L177.081 41.4208L177.099 41.4509L179.706 39.968ZM178.266 33.728L180.592 31.833L175.042 25.0217L175.267 33.8049L178.266 33.728ZM180.378 36.32H183.378V35.2525L182.704 34.425L180.378 36.32ZM180.378 53.6V56.6H183.378V53.6H180.378ZM189.258 36.8L190.922 39.2962L190.933 39.2893L190.943 39.2824L189.258 36.8ZM191.322 34.304L188.623 32.9952L188.607 33.0287L188.591 33.0626L191.322 34.304ZM191.322 27.152L188.606 28.4253L188.63 28.4771L188.657 28.5279L191.322 27.152ZM189.306 24.8L187.642 27.2962L187.675 27.3179L187.708 27.3387L189.306 24.8ZM183.258 24.656L181.88 21.9913L181.861 22.0013L181.842 22.0116L183.258 24.656ZM181.05 26.768L183.599 28.3501L183.599 28.3501L181.05 26.768ZM181.098 34.976L178.616 36.6605L178.63 36.6816L178.645 36.7025L181.098 34.976ZM183.402 36.992L182.024 39.6567L182.061 39.6757L182.098 39.6937L183.402 36.992ZM174.642 53.6V17.504H168.642V53.6H174.642ZM171.642 20.504H178.554V14.504H171.642V20.504ZM175.554 17.504V28.928H181.554V17.504H175.554ZM178.554 25.928H177.786V31.928H178.554V25.928ZM180.784 29.039C180.868 26.7695 181.311 25.0112 181.996 23.6644L176.649 20.9436C175.478 23.2448 174.896 25.9025 174.788 28.817L180.784 29.039ZM181.977 23.7012C182.697 22.3329 183.608 21.4011 184.693 20.7839L181.727 15.5681C179.549 16.8069 177.867 18.6271 176.668 20.9068L181.977 23.7012ZM184.731 20.7618C185.851 20.1034 187.186 19.736 188.826 19.736V13.736C186.243 13.736 183.834 14.3286 181.689 15.5902L184.731 20.7618ZM188.826 19.736C190.275 19.736 191.491 20.001 192.525 20.4731L195.016 15.0149C193.106 14.1429 191.025 13.736 188.826 13.736V19.736ZM192.574 20.4952C193.634 20.9562 194.534 21.6157 195.297 22.4951L199.827 18.5609C198.479 17.0083 196.85 15.8118 194.967 14.9928L192.574 20.4952ZM195.323 22.5248C196.086 23.3795 196.69 24.4228 197.116 25.7007L202.808 23.8033C202.146 21.8172 201.151 20.0445 199.801 18.5312L195.323 22.5248ZM197.133 25.7505C197.583 27.0235 197.826 28.4731 197.826 30.128H203.826C203.826 27.8789 203.494 25.7445 202.791 23.7535L197.133 25.7505ZM197.826 30.128V31.28H203.826V30.128H197.826ZM197.826 31.28C197.826 32.9687 197.605 34.4758 197.191 35.8217L202.926 37.5863C203.536 35.6042 203.826 33.4953 203.826 31.28H197.826ZM197.196 35.806C196.792 37.0934 196.201 38.1875 195.435 39.121L200.074 42.9269C201.356 41.3645 202.301 39.5786 202.921 37.602L197.196 35.806ZM195.46 39.0916C194.738 39.9487 193.845 40.6227 192.739 41.117L195.186 46.595C197.088 45.7453 198.723 44.5313 200.049 42.9564L195.46 39.0916ZM192.717 41.1269C191.702 41.5902 190.444 41.864 188.874 41.864V47.864C191.145 47.864 193.279 47.4658 195.208 46.5851L192.717 41.1269ZM188.874 41.864C187.223 41.864 185.896 41.5436 184.814 40.9917L182.087 46.3363C184.141 47.3844 186.43 47.864 188.874 47.864V41.864ZM184.857 41.014C183.821 40.4647 182.978 39.6517 182.314 38.4851L177.099 41.4509C178.291 43.5483 179.943 45.1993 182.044 46.314L184.857 41.014ZM182.348 38.5457C181.735 37.4071 181.321 35.8218 181.265 33.6511L175.267 33.8049C175.34 36.6262 175.886 39.2009 177.065 41.3903L182.348 38.5457ZM175.941 35.623L178.053 38.215L182.704 34.425L180.592 31.833L175.941 35.623ZM177.378 36.32V53.6H183.378V36.32H177.378ZM180.378 50.6H171.642V56.6H180.378V50.6ZM186.234 40.664C187.911 40.664 189.512 40.2361 190.922 39.2962L187.594 34.3038C187.276 34.5159 186.861 34.664 186.234 34.664V40.664ZM190.943 39.2824C192.328 38.3426 193.362 37.0662 194.053 35.5454L188.591 33.0626C188.323 33.6538 187.981 34.0414 187.574 34.3176L190.943 39.2824ZM194.022 35.6128C194.759 34.0934 195.09 32.4354 195.09 30.704H189.09C189.09 31.6606 188.91 32.4026 188.623 32.9952L194.022 35.6128ZM195.09 30.704C195.09 28.9588 194.765 27.2812 193.988 25.7761L188.657 28.5279C188.904 29.0068 189.09 29.6972 189.09 30.704H195.09ZM194.039 25.8787C193.342 24.3925 192.306 23.1438 190.905 22.2613L187.708 27.3387C188.034 27.5442 188.343 27.8635 188.606 28.4253L194.039 25.8787ZM190.97 22.3038C189.547 21.3548 187.925 20.936 186.234 20.936V26.936C186.912 26.936 187.338 27.0932 187.642 27.2962L190.97 22.3038ZM186.234 20.936C184.704 20.936 183.239 21.2885 181.88 21.9913L184.637 27.3207C185.134 27.0635 185.653 26.936 186.234 26.936V20.936ZM181.842 22.0116C180.447 22.7587 179.334 23.845 178.501 25.1859L183.599 28.3501C183.919 27.835 184.278 27.5133 184.675 27.3004L181.842 22.0116ZM178.501 25.1859C177.576 26.6768 177.186 28.3702 177.186 30.128H183.186C183.186 29.2618 183.373 28.7152 183.599 28.3501L178.501 25.1859ZM177.186 30.128V31.76H183.186V30.128H177.186ZM177.186 31.76C177.186 33.5143 177.621 35.1948 178.616 36.6605L183.581 33.2915C183.359 32.9652 183.186 32.5017 183.186 31.76H177.186ZM178.645 36.7025C179.527 37.9565 180.663 38.9524 182.024 39.6567L184.781 34.3273C184.286 34.0716 183.885 33.7235 183.552 33.2495L178.645 36.7025ZM182.098 39.6937C183.402 40.3233 184.79 40.664 186.234 40.664V34.664C185.759 34.664 185.258 34.5567 184.707 34.2903L182.098 39.6937ZM211.147 43.808L209.928 46.5494L209.928 46.5494L211.147 43.808ZM206.779 40.688L209.006 38.6781L209.006 38.6781L206.779 40.688ZM204.043 36.272L201.232 37.3193L201.24 37.3434L201.25 37.3673L204.043 36.272ZM204.043 25.136L201.243 24.0591L201.237 24.0738L201.232 24.0887L204.043 25.136ZM206.731 20.72L204.528 18.6829L204.515 18.6979L204.501 18.7131L206.731 20.72ZM211.051 17.696L212.245 20.448L212.267 20.4386L212.288 20.4289L211.051 17.696ZM224.059 18.464L222.432 20.9849L222.432 20.9849L224.059 18.464ZM228.619 23.552L225.935 24.8936L225.94 24.9019L225.944 24.9101L228.619 23.552ZM230.203 33.152V36.152H233.203V33.152H230.203ZM206.779 33.152H203.779V36.152H206.779V33.152ZM206.779 28.448V25.448H203.779V28.448H206.779ZM225.163 28.448L226.881 30.9075L234.698 25.448H225.163V28.448ZM222.139 30.56H219.139V36.3145L223.857 33.0195L222.139 30.56ZM221.515 26.768L218.695 27.7932L218.714 27.8455L218.735 27.8971L221.515 26.768ZM219.739 24.368L218.005 26.8161L218.028 26.8327L218.052 26.8488L219.739 24.368ZM213.787 24.368L215.359 26.923L215.372 26.9149L215.385 26.9067L213.787 24.368ZM211.867 26.768L214.628 27.9396L214.635 27.925L214.641 27.9102L211.867 26.768ZM211.819 34.64L209.017 35.7114L209.022 35.7255L209.028 35.7396L211.819 34.64ZM213.739 37.088L215.403 34.5918L215.403 34.5918L213.739 37.088ZM220.075 37.328L218.691 34.6663L218.668 34.678L218.646 34.6901L220.075 37.328ZM221.755 35.648V32.648H219.823L219.024 34.4066L221.755 35.648ZM229.723 35.648L232.656 36.2766L233.434 32.648H229.723V35.648ZM227.419 40.448L225.097 38.5483L225.084 38.5643L225.071 38.5804L227.419 40.448ZM223.099 43.76L221.857 41.0289L221.848 41.0332L221.838 41.0376L223.099 43.76ZM217.099 41.96C215.202 41.96 213.645 41.6356 212.365 41.0666L209.928 46.5494C212.104 47.5164 214.515 47.96 217.099 47.96V41.96ZM212.365 41.0666C210.994 40.457 209.889 39.6569 209.006 38.6781L204.552 42.6979C206.036 44.3431 207.844 45.623 209.928 46.5494L212.365 41.0666ZM209.006 38.6781C208.062 37.6322 207.343 36.4695 206.836 35.1767L201.25 37.3673C202.023 39.3385 203.127 41.1198 204.552 42.6979L209.006 38.6781ZM206.854 35.2247C206.37 33.9251 206.131 32.5996 206.131 31.232H200.131C200.131 33.3204 200.5 35.3549 201.232 37.3193L206.854 35.2247ZM206.131 31.232V30.272H200.131V31.232H206.131ZM206.131 30.272C206.131 28.827 206.374 27.4705 206.854 26.1833L201.232 24.0887C200.495 26.0655 200.131 28.133 200.131 30.272H206.131ZM206.843 26.2129C207.356 24.8789 208.063 23.7247 208.961 22.7269L204.501 18.7131C203.095 20.2753 202.01 22.0651 201.243 24.0591L206.843 26.2129ZM208.933 22.7571C209.817 21.801 210.908 21.0284 212.245 20.448L209.856 14.944C207.802 15.8356 206.012 17.079 204.528 18.6829L208.933 22.7571ZM212.288 20.4289C213.541 19.8617 215.029 19.544 216.811 19.544V13.544C214.304 13.544 211.953 13.9943 209.813 14.9631L212.288 20.4289ZM216.811 19.544C219.202 19.544 221.025 20.077 222.432 20.9849L225.685 15.9431C223.124 14.291 220.116 13.544 216.811 13.544V19.544ZM222.432 20.9849C223.965 21.9735 225.12 23.2622 225.935 24.8936L231.302 22.2104C230.006 19.6178 228.121 17.5145 225.685 15.9431L222.432 20.9849ZM225.944 24.9101C226.774 26.5456 227.203 28.3486 227.203 30.368H233.203C233.203 27.4594 232.575 24.7184 231.294 22.1939L225.944 24.9101ZM227.203 30.368V33.152H233.203V30.368H227.203ZM230.203 30.152H206.779V36.152H230.203V30.152ZM209.779 33.152V28.448H203.779V33.152H209.779ZM206.779 31.448H225.163V25.448H206.779V31.448ZM223.445 25.9885L220.421 28.1005L223.857 33.0195L226.881 30.9075L223.445 25.9885ZM225.139 30.56C225.139 28.7998 224.898 27.1256 224.294 25.6389L218.735 27.8971C218.963 28.4584 219.139 29.3122 219.139 30.56H225.139ZM224.334 25.7428C223.771 24.1936 222.827 22.8404 221.426 21.8872L218.052 26.8488C218.25 26.9836 218.491 27.2304 218.695 27.7932L224.334 25.7428ZM221.473 21.9199C220.08 20.9337 218.455 20.552 216.811 20.552V26.552C217.535 26.552 217.861 26.7143 218.005 26.8161L221.473 21.9199ZM216.811 20.552C215.168 20.552 213.59 20.9465 212.188 21.8293L215.385 26.9067C215.711 26.7015 216.15 26.552 216.811 26.552V20.552ZM212.214 21.813C210.74 22.7205 209.732 24.0743 209.093 25.6257L214.641 27.9102C214.898 27.2857 215.17 27.0395 215.359 26.923L212.214 21.813ZM209.105 25.5963C208.448 27.1446 208.195 28.9228 208.195 30.8H214.195C214.195 29.4132 214.389 28.5034 214.628 27.9396L209.105 25.5963ZM208.195 30.8C208.195 32.5456 208.44 34.2044 209.017 35.7114L214.621 33.5686C214.365 32.8996 214.195 31.9984 214.195 30.8H208.195ZM209.028 35.7396C209.646 37.3097 210.654 38.6369 212.075 39.5842L215.403 34.5918C215.096 34.3871 214.823 34.0823 214.61 33.5404L209.028 35.7396ZM212.075 39.5841C213.568 40.5799 215.32 40.952 217.099 40.952V34.952C216.126 34.952 215.637 34.7481 215.403 34.5918L212.075 39.5841ZM217.099 40.952C218.628 40.952 220.159 40.6944 221.504 39.9659L218.646 34.6901C218.455 34.7936 218.001 34.952 217.099 34.952V40.952ZM221.459 39.9897C222.751 39.3178 223.844 38.3021 224.486 36.8894L219.024 34.4066C219.016 34.4232 219.005 34.4428 218.973 34.4747C218.938 34.5103 218.856 34.5805 218.691 34.6663L221.459 39.9897ZM221.755 38.648H229.723V32.648H221.755V38.648ZM226.789 35.0194C226.504 36.3487 225.945 37.5122 225.097 38.5483L229.741 42.3477C231.197 40.5678 232.173 38.5313 232.656 36.2766L226.789 35.0194ZM225.071 38.5804C224.268 39.5898 223.218 40.4102 221.857 41.0289L224.34 46.4911C226.499 45.5098 228.329 44.1222 229.767 42.3156L225.071 38.5804ZM221.838 41.0376C220.574 41.6228 219.018 41.96 217.099 41.96V47.96C219.723 47.96 222.167 47.4972 224.359 46.4824L221.838 41.0376ZM233.847 44H230.847V47H233.847V44ZM233.847 17.504V14.504H230.847V17.504H233.847ZM240.759 17.504H243.759V14.504H240.759V17.504ZM240.759 29.024V32.024H243.759V29.024H240.759ZM240.663 29.024H237.663V32.024H240.663V29.024ZM242.967 20.288L240.559 18.4997L240.55 18.5115L240.541 18.5235L242.967 20.288ZM250.743 17.12H253.743V14.12H250.743V17.12ZM250.743 24.608V27.608H253.743V24.608H250.743ZM244.167 26.192L242.078 24.0393L242.062 24.0548L242.046 24.0707L244.167 26.192ZM242.583 44V47H245.583V44H242.583ZM236.847 44V17.504H230.847V44H236.847ZM233.847 20.504H240.759V14.504H233.847V20.504ZM237.759 17.504V29.024H243.759V17.504H237.759ZM240.759 26.024H240.663V32.024H240.759V26.024ZM243.663 29.024C243.663 25.6877 244.358 23.4763 245.394 22.0525L240.541 18.5235C238.505 21.3237 237.663 24.9363 237.663 29.024H243.663ZM245.376 22.0763C246.312 20.8161 247.607 20.12 249.687 20.12V14.12C245.943 14.12 242.759 15.5359 240.559 18.4997L245.376 22.0763ZM249.687 20.12H250.743V14.12H249.687V20.12ZM247.743 17.12V24.608H253.743V17.12H247.743ZM250.743 21.608H248.727V27.608H250.743V21.608ZM248.727 21.608C246.229 21.608 243.873 22.2965 242.078 24.0393L246.257 28.3447C246.637 27.9755 247.322 27.608 248.727 27.608V21.608ZM242.046 24.0707C240.261 25.8553 239.583 28.2427 239.583 30.752H245.583C245.583 29.2933 245.961 28.6407 246.289 28.3133L242.046 24.0707ZM239.583 30.752V44H245.583V30.752H239.583ZM242.583 41H233.847V47H242.583V41Z" fill="black" mask="url(#path-1-outside-1_1532_648)"/>
</svg>
