<svg width="411" height="60" viewBox="0 0 411 60" fill="none" xmlns="http://www.w3.org/2000/svg">
<mask id="path-1-outside-1_1611_651" maskUnits="userSpaceOnUse" x="5" y="3" width="402" height="55" fill="black">
<rect fill="white" x="5" y="3" width="402" height="55"/>
<path d="M16.7391 34.688V27.008H22.4991C23.5871 27.008 24.5311 26.8 25.3311 26.384C26.1311 25.936 26.7551 25.312 27.2031 24.512C27.6511 23.712 27.8751 22.768 27.8751 21.68C27.8751 20.56 27.6511 19.6 27.2031 18.8C26.7551 18 26.1311 17.392 25.3311 16.976C24.5311 16.56 23.5871 16.352 22.4991 16.352H16.7391V8.672H22.2591C25.2671 8.672 27.8591 9.184 30.0351 10.208C32.2431 11.2 33.9391 12.64 35.1231 14.528C36.3071 16.416 36.8991 18.672 36.8991 21.296V22.064C36.8991 24.656 36.3071 26.896 35.1231 28.784C33.9391 30.672 32.2431 32.128 30.0351 33.152C27.8591 34.176 25.2671 34.688 22.2591 34.688H16.7391ZM8.77106 44V8.672H17.6991V44H8.77106ZM40.1458 44V17.504H47.0578V29.024H46.9618C46.9618 25.312 47.7298 22.4 49.2658 20.288C50.8338 18.176 53.0738 17.12 55.9858 17.12H57.0418V24.608H55.0258C53.0738 24.608 51.5538 25.136 50.4658 26.192C49.4098 27.248 48.8818 28.768 48.8818 30.752V44H40.1458ZM72.6358 44.96C70.2998 44.96 68.2198 44.608 66.3958 43.904C64.5718 43.2 63.0198 42.224 61.7398 40.976C60.4918 39.728 59.5318 38.288 58.8598 36.656C58.2198 35.024 57.8998 33.28 57.8998 31.424V30.272C57.8998 28.352 58.2358 26.56 58.9078 24.896C59.6118 23.232 60.6038 21.776 61.8838 20.528C63.1638 19.28 64.7158 18.304 66.5398 17.6C68.3638 16.896 70.3958 16.544 72.6358 16.544C74.9078 16.544 76.9398 16.896 78.7318 17.6C80.5558 18.304 82.1078 19.28 83.3878 20.528C84.6678 21.776 85.6438 23.232 86.3158 24.896C87.0198 26.56 87.3718 28.352 87.3718 30.272V31.424C87.3718 33.28 87.0358 35.024 86.3638 36.656C85.7238 38.288 84.7638 39.728 83.4838 40.976C82.2358 42.224 80.6998 43.2 78.8758 43.904C77.0518 44.608 74.9718 44.96 72.6358 44.96ZM72.6358 37.664C73.9798 37.664 75.0838 37.376 75.9478 36.8C76.8438 36.224 77.5158 35.424 77.9638 34.4C78.4118 33.344 78.6358 32.16 78.6358 30.848C78.6358 29.472 78.3958 28.272 77.9158 27.248C77.4678 26.192 76.7958 25.36 75.8998 24.752C75.0038 24.144 73.9158 23.84 72.6358 23.84C71.3558 23.84 70.2678 24.144 69.3718 24.752C68.4758 25.36 67.7878 26.192 67.3078 27.248C66.8598 28.272 66.6358 29.472 66.6358 30.848C66.6358 32.16 66.8598 33.344 67.3078 34.4C67.7558 35.424 68.4278 36.224 69.3238 36.8C70.2198 37.376 71.3238 37.664 72.6358 37.664ZM103.291 44.96C100.987 44.96 98.9866 44.592 97.2906 43.856C95.5946 43.088 94.1706 42.064 93.0186 40.784C91.8986 39.504 91.0506 38.048 90.4746 36.416C89.9306 34.784 89.6586 33.088 89.6586 31.328V30.368C89.6586 28.512 89.9466 26.752 90.5226 25.088C91.1306 23.424 92.0106 21.952 93.1626 20.672C94.3146 19.392 95.7386 18.384 97.4346 17.648C99.1306 16.912 101.083 16.544 103.291 16.544C105.723 16.544 107.867 17.024 109.723 17.984C111.579 18.944 113.051 20.272 114.139 21.968C115.259 23.632 115.883 25.552 116.011 27.728H107.467C107.371 26.672 106.971 25.776 106.267 25.04C105.595 24.304 104.603 23.936 103.291 23.936C102.171 23.936 101.243 24.224 100.507 24.8C99.8026 25.376 99.2746 26.176 98.9226 27.2C98.5706 28.224 98.3946 29.44 98.3946 30.848C98.3946 32.16 98.5386 33.328 98.8266 34.352C99.1466 35.376 99.6586 36.176 100.363 36.752C101.099 37.296 102.075 37.568 103.291 37.568C104.187 37.568 104.939 37.408 105.547 37.088C106.155 36.768 106.635 36.32 106.987 35.744C107.339 35.136 107.563 34.432 107.659 33.632H116.203C116.075 35.872 115.435 37.84 114.283 39.536C113.163 41.232 111.659 42.56 109.771 43.52C107.883 44.48 105.723 44.96 103.291 44.96ZM119.672 44V17.504H126.584V29.024H126.488C126.488 25.312 127.256 22.4 128.792 20.288C130.36 18.176 132.6 17.12 135.512 17.12H136.568V24.608H134.552C132.6 24.608 131.08 25.136 129.992 26.192C128.936 27.248 128.408 28.768 128.408 30.752V44H119.672ZM154.9 44V36.224H153.46V27.92C153.46 26.704 153.172 25.808 152.596 25.232C152.052 24.624 151.14 24.32 149.86 24.32C149.252 24.32 148.356 24.336 147.172 24.368C145.988 24.4 144.74 24.448 143.428 24.512C142.116 24.576 140.916 24.64 139.828 24.704V17.408C140.596 17.344 141.508 17.28 142.564 17.216C143.62 17.152 144.708 17.104 145.828 17.072C146.98 17.04 148.036 17.024 148.996 17.024C151.716 17.024 154.02 17.424 155.908 18.224C157.828 19.024 159.284 20.224 160.276 21.824C161.3 23.424 161.812 25.456 161.812 27.92V44H154.9ZM146.5 44.672C144.644 44.672 142.996 44.336 141.556 43.664C140.116 42.992 138.98 42.032 138.148 40.784C137.348 39.504 136.948 37.984 136.948 36.224C136.948 34.24 137.476 32.64 138.532 31.424C139.588 30.176 141.044 29.264 142.9 28.688C144.756 28.112 146.884 27.824 149.284 27.824H154.42V32.336H149.284C148.1 32.336 147.188 32.64 146.548 33.248C145.908 33.824 145.588 34.608 145.588 35.6C145.588 36.56 145.908 37.344 146.548 37.952C147.188 38.528 148.1 38.816 149.284 38.816C150.052 38.816 150.724 38.688 151.3 38.432C151.908 38.144 152.404 37.664 152.788 36.992C153.172 36.32 153.396 35.392 153.46 34.208L155.476 36.128C155.316 37.952 154.868 39.504 154.132 40.784C153.428 42.032 152.436 42.992 151.156 43.664C149.908 44.336 148.356 44.672 146.5 44.672ZM177.202 44.864C173.362 44.864 170.338 44.08 168.13 42.512C165.922 40.912 164.738 38.672 164.578 35.792H172.258C172.386 36.592 172.882 37.28 173.746 37.856C174.61 38.432 175.826 38.72 177.394 38.72C178.514 38.72 179.474 38.56 180.274 38.24C181.106 37.888 181.522 37.328 181.522 36.56C181.522 35.888 181.202 35.344 180.562 34.928C179.922 34.48 178.754 34.176 177.058 34.016L175.234 33.824C171.842 33.472 169.346 32.544 167.746 31.04C166.146 29.536 165.346 27.648 165.346 25.376C165.346 23.424 165.826 21.824 166.786 20.576C167.746 19.296 169.074 18.336 170.77 17.696C172.466 17.056 174.402 16.736 176.578 16.736C180.13 16.736 182.994 17.52 185.17 19.088C187.346 20.624 188.498 22.848 188.626 25.76H180.946C180.818 24.96 180.386 24.288 179.65 23.744C178.914 23.168 177.858 22.88 176.482 22.88C175.49 22.88 174.674 23.056 174.034 23.408C173.426 23.76 173.122 24.256 173.122 24.896C173.122 25.568 173.41 26.064 173.986 26.384C174.594 26.704 175.554 26.944 176.866 27.104L178.69 27.296C182.082 27.648 184.69 28.592 186.514 30.128C188.37 31.632 189.298 33.616 189.298 36.08C189.298 37.904 188.802 39.472 187.81 40.784C186.85 42.096 185.458 43.104 183.634 43.808C181.842 44.512 179.698 44.864 177.202 44.864ZM205.307 44.384C202.427 44.384 200.123 44.032 198.395 43.328C196.699 42.624 195.467 41.456 194.699 39.824C193.931 38.192 193.547 35.984 193.547 33.2L193.595 10.592H201.659L201.611 33.44C201.611 34.624 201.915 35.536 202.523 36.176C203.163 36.784 204.075 37.088 205.259 37.088H208.907V44.384H205.307ZM189.707 23.84V17.504H208.907V23.84H189.707ZM213.877 44V17.504H222.613V44H213.877ZM210.517 23.84V17.504H222.613V23.84H210.517ZM217.477 15.392C215.877 15.392 214.693 14.992 213.925 14.192C213.189 13.36 212.821 12.304 212.821 11.024C212.821 9.744 213.189 8.704 213.925 7.904C214.693 7.072 215.861 6.656 217.429 6.656C219.029 6.656 220.197 7.072 220.933 7.904C221.669 8.704 222.037 9.744 222.037 11.024C222.037 12.304 221.669 13.36 220.933 14.192C220.197 14.992 219.045 15.392 217.477 15.392ZM228.075 44V17.504H234.987V28.88H234.603C234.603 26.128 234.955 23.856 235.659 22.064C236.363 20.24 237.403 18.88 238.779 17.984C240.187 17.088 241.883 16.64 243.867 16.64H244.251C247.259 16.64 249.579 17.648 251.211 19.664C252.875 21.648 253.707 24.704 253.707 28.832V44H244.971V28.592C244.971 27.376 244.603 26.384 243.867 25.616C243.163 24.816 242.187 24.416 240.939 24.416C239.691 24.416 238.683 24.816 237.915 25.616C237.179 26.384 236.811 27.408 236.811 28.688V44H228.075ZM274.647 44V36.224H273.207V27.92C273.207 26.704 272.919 25.808 272.343 25.232C271.799 24.624 270.887 24.32 269.607 24.32C268.999 24.32 268.103 24.336 266.919 24.368C265.735 24.4 264.487 24.448 263.175 24.512C261.863 24.576 260.663 24.64 259.575 24.704V17.408C260.343 17.344 261.255 17.28 262.311 17.216C263.367 17.152 264.455 17.104 265.575 17.072C266.727 17.04 267.783 17.024 268.743 17.024C271.463 17.024 273.767 17.424 275.655 18.224C277.575 19.024 279.031 20.224 280.023 21.824C281.047 23.424 281.559 25.456 281.559 27.92V44H274.647ZM266.247 44.672C264.391 44.672 262.743 44.336 261.303 43.664C259.863 42.992 258.727 42.032 257.895 40.784C257.095 39.504 256.695 37.984 256.695 36.224C256.695 34.24 257.223 32.64 258.279 31.424C259.335 30.176 260.791 29.264 262.647 28.688C264.503 28.112 266.631 27.824 269.031 27.824H274.167V32.336H269.031C267.847 32.336 266.935 32.64 266.295 33.248C265.655 33.824 265.335 34.608 265.335 35.6C265.335 36.56 265.655 37.344 266.295 37.952C266.935 38.528 267.847 38.816 269.031 38.816C269.799 38.816 270.471 38.688 271.047 38.432C271.655 38.144 272.151 37.664 272.535 36.992C272.919 36.32 273.143 35.392 273.207 34.208L275.223 36.128C275.063 37.952 274.615 39.504 273.879 40.784C273.175 42.032 272.183 42.992 270.903 43.664C269.655 44.336 268.103 44.672 266.247 44.672ZM299.06 44.384C296.18 44.384 293.876 44.032 292.148 43.328C290.452 42.624 289.22 41.456 288.452 39.824C287.684 38.192 287.3 35.984 287.3 33.2L287.348 10.592H295.412L295.364 33.44C295.364 34.624 295.668 35.536 296.276 36.176C296.916 36.784 297.828 37.088 299.012 37.088H302.66V44.384H299.06ZM283.46 23.84V17.504H302.66V23.84H283.46ZM307.631 44V17.504H316.367V44H307.631ZM304.271 23.84V17.504H316.367V23.84H304.271ZM311.231 15.392C309.631 15.392 308.447 14.992 307.679 14.192C306.943 13.36 306.575 12.304 306.575 11.024C306.575 9.744 306.943 8.704 307.679 7.904C308.447 7.072 309.615 6.656 311.183 6.656C312.783 6.656 313.951 7.072 314.687 7.904C315.423 8.704 315.791 9.744 315.791 11.024C315.791 12.304 315.423 13.36 314.687 14.192C313.951 14.992 312.799 15.392 311.231 15.392ZM321.829 44V17.504H328.741V28.88H328.357C328.357 26.128 328.709 23.856 329.413 22.064C330.117 20.24 331.157 18.88 332.533 17.984C333.941 17.088 335.637 16.64 337.621 16.64H338.005C341.013 16.64 343.333 17.648 344.965 19.664C346.629 21.648 347.461 24.704 347.461 28.832V44H338.725V28.592C338.725 27.376 338.357 26.384 337.621 25.616C336.917 24.816 335.941 24.416 334.693 24.416C333.445 24.416 332.437 24.816 331.669 25.616C330.933 26.384 330.565 27.408 330.565 28.688V44H321.829ZM362.977 54.608C361.665 54.608 360.305 54.56 358.897 54.464C357.521 54.368 356.273 54.24 355.153 54.08V46.784C356.273 46.912 357.521 47.024 358.897 47.12C360.273 47.248 361.537 47.312 362.689 47.312C364.673 47.312 366.289 47.104 367.537 46.688C368.817 46.272 369.761 45.632 370.369 44.768C370.977 43.904 371.281 42.8 371.281 41.456V36.08L372.625 33.2C372.561 35.44 372.129 37.392 371.329 39.056C370.529 40.688 369.377 41.952 367.873 42.848C366.401 43.744 364.609 44.192 362.497 44.192C360.705 44.192 359.089 43.872 357.649 43.232C356.209 42.592 354.977 41.696 353.953 40.544C352.961 39.36 352.193 37.968 351.649 36.368C351.105 34.768 350.833 33.024 350.833 31.136V29.984C350.833 28.096 351.121 26.352 351.697 24.752C352.273 23.12 353.105 21.712 354.193 20.528C355.281 19.312 356.561 18.384 358.033 17.744C359.537 17.072 361.201 16.736 363.025 16.736C365.137 16.736 366.961 17.216 368.497 18.176C370.033 19.104 371.233 20.464 372.097 22.256C372.961 24.048 373.425 26.224 373.489 28.784L372.529 29.12V17.504H379.441V40.88C379.441 44.144 378.833 46.784 377.617 48.8C376.401 50.816 374.561 52.288 372.097 53.216C369.665 54.144 366.625 54.608 362.977 54.608ZM365.425 36.992C366.481 36.992 367.425 36.752 368.257 36.272C369.121 35.792 369.809 35.104 370.321 34.208C370.833 33.28 371.089 32.176 371.089 30.896V29.744C371.089 28.496 370.817 27.44 370.273 26.576C369.761 25.712 369.073 25.056 368.209 24.608C367.345 24.16 366.417 23.936 365.425 23.936C364.273 23.936 363.249 24.208 362.353 24.752C361.489 25.296 360.801 26.064 360.289 27.056C359.809 28.048 359.569 29.216 359.569 30.56C359.569 31.904 359.809 33.056 360.289 34.016C360.801 34.976 361.489 35.712 362.353 36.224C363.249 36.736 364.273 36.992 365.425 36.992ZM393.53 31.712V8.96H402.458V31.712H393.53ZM392.906 44V35.648H403.082V44H392.906Z"/>
</mask>
<path d="M16.7391 34.688H13.7391V37.688H16.7391V34.688ZM16.7391 27.008V24.008H13.7391V27.008H16.7391ZM25.3311 26.384L26.7151 29.0456L26.7563 29.0242L26.7969 29.0015L25.3311 26.384ZM27.2031 18.8L29.8206 17.3342L29.8206 17.3342L27.2031 18.8ZM16.7391 16.352H13.7391V19.352H16.7391V16.352ZM16.7391 8.672V5.672H13.7391V8.672H16.7391ZM30.0351 10.208L28.7577 12.9225L28.7815 12.9337L28.8056 12.9445L30.0351 10.208ZM35.1231 28.784L37.6646 30.3779L37.6646 30.3779L35.1231 28.784ZM30.0351 33.152L28.7729 30.4304L28.7653 30.434L28.7577 30.4375L30.0351 33.152ZM8.77106 44H5.77106V47H8.77106V44ZM8.77106 8.672V5.672H5.77106V8.672H8.77106ZM17.6991 8.672H20.6991V5.672H17.6991V8.672ZM17.6991 44V47H20.6991V44H17.6991ZM19.7391 34.688V27.008H13.7391V34.688H19.7391ZM16.7391 30.008H22.4991V24.008H16.7391V30.008ZM22.4991 30.008C23.9702 30.008 25.4079 29.7254 26.7151 29.0456L23.947 23.7223C23.6542 23.8746 23.2039 24.008 22.4991 24.008V30.008ZM26.7969 29.0015C28.0796 28.2832 29.1022 27.2606 29.8206 25.9778L24.5855 23.0462C24.4079 23.3634 24.1825 23.5888 23.8652 23.7665L26.7969 29.0015ZM29.8206 25.9778C30.5624 24.6531 30.8751 23.1853 30.8751 21.68H24.8751C24.8751 22.3507 24.7397 22.7709 24.5855 23.0462L29.8206 25.9778ZM30.8751 21.68C30.8751 20.1596 30.5693 18.6712 29.8206 17.3342L24.5855 20.2658C24.7328 20.5288 24.8751 20.9604 24.8751 21.68H30.8751ZM29.8206 17.3342C29.0919 16.033 28.0433 15.005 26.7151 14.3143L23.947 19.6376C24.2188 19.779 24.4182 19.967 24.5855 20.2658L29.8206 17.3342ZM26.7151 14.3143C25.4079 13.6346 23.9702 13.352 22.4991 13.352V19.352C23.2039 19.352 23.6542 19.4854 23.947 19.6376L26.7151 14.3143ZM22.4991 13.352H16.7391V19.352H22.4991V13.352ZM19.7391 16.352V8.672H13.7391V16.352H19.7391ZM16.7391 11.672H22.2591V5.672H16.7391V11.672ZM22.2591 11.672C24.9332 11.672 27.0684 12.1275 28.7577 12.9225L31.3124 7.49354C28.6497 6.24047 25.6009 5.672 22.2591 5.672V11.672ZM28.8056 12.9445C30.5217 13.7155 31.7396 14.7794 32.5815 16.1219L37.6646 12.9341C36.1385 10.5006 33.9644 8.68451 31.2645 7.47149L28.8056 12.9445ZM32.5815 16.1219C33.4162 17.4529 33.8991 19.1343 33.8991 21.296H39.8991C39.8991 18.2097 39.1979 15.3791 37.6646 12.9341L32.5815 16.1219ZM33.8991 21.296V22.064H39.8991V21.296H33.8991ZM33.8991 22.064C33.8991 24.1858 33.4198 25.8534 32.5815 27.1901L37.6646 30.3779C39.1943 27.9386 39.8991 25.1262 39.8991 22.064H33.8991ZM32.5815 27.1901C31.7342 28.5412 30.5048 29.6272 28.7729 30.4304L31.2972 35.8736C33.9813 34.6288 36.1439 32.8028 37.6646 30.3779L32.5815 27.1901ZM28.7577 30.4375C27.0684 31.2325 24.9332 31.688 22.2591 31.688V37.688C25.6009 37.688 28.6497 37.1195 31.3124 35.8665L28.7577 30.4375ZM22.2591 31.688H16.7391V37.688H22.2591V31.688ZM11.7711 44V8.672H5.77106V44H11.7711ZM8.77106 11.672H17.6991V5.672H8.77106V11.672ZM14.6991 8.672V44H20.6991V8.672H14.6991ZM17.6991 41H8.77106V47H17.6991V41ZM40.1458 44H37.1458V47H40.1458V44ZM40.1458 17.504V14.504H37.1458V17.504H40.1458ZM47.0578 17.504H50.0578V14.504H47.0578V17.504ZM47.0578 29.024V32.024H50.0578V29.024H47.0578ZM46.9618 29.024H43.9618V32.024H46.9618V29.024ZM49.2658 20.288L46.8571 18.4997L46.8483 18.5115L46.8396 18.5235L49.2658 20.288ZM57.0418 17.12H60.0418V14.12H57.0418V17.12ZM57.0418 24.608V27.608H60.0418V24.608H57.0418ZM50.4658 26.192L48.3764 24.0393L48.3603 24.0548L48.3445 24.0707L50.4658 26.192ZM48.8818 44V47H51.8818V44H48.8818ZM43.1458 44V17.504H37.1458V44H43.1458ZM40.1458 20.504H47.0578V14.504H40.1458V20.504ZM44.0578 17.504V29.024H50.0578V17.504H44.0578ZM47.0578 26.024H46.9618V32.024H47.0578V26.024ZM49.9618 29.024C49.9618 25.6877 50.6566 23.4763 51.692 22.0525L46.8396 18.5235C44.803 21.3237 43.9618 24.9363 43.9618 29.024H49.9618ZM51.6745 22.0763C52.6101 20.8161 53.9059 20.12 55.9858 20.12V14.12C52.2417 14.12 49.0575 15.5359 46.8571 18.4997L51.6745 22.0763ZM55.9858 20.12H57.0418V14.12H55.9858V20.12ZM54.0418 17.12V24.608H60.0418V17.12H54.0418ZM57.0418 21.608H55.0258V27.608H57.0418V21.608ZM55.0258 21.608C52.5271 21.608 50.1719 22.2965 48.3764 24.0393L52.5552 28.3447C52.9357 27.9755 53.6205 27.608 55.0258 27.608V21.608ZM48.3445 24.0707C46.5599 25.8553 45.8818 28.2427 45.8818 30.752H51.8818C51.8818 29.2933 52.2597 28.6407 52.5871 28.3133L48.3445 24.0707ZM45.8818 30.752V44H51.8818V30.752H45.8818ZM48.8818 41H40.1458V47H48.8818V41ZM66.3958 43.904L67.476 41.1052L67.476 41.1052L66.3958 43.904ZM61.7398 40.976L59.6185 43.0973L59.6319 43.1107L59.6455 43.124L61.7398 40.976ZM58.8598 36.656L56.0669 37.7513L56.0761 37.7748L56.0858 37.7982L58.8598 36.656ZM58.9078 24.896L56.1449 23.7271L56.1353 23.7498L56.1261 23.7726L58.9078 24.896ZM61.8838 20.528L59.7895 18.38L59.7895 18.38L61.8838 20.528ZM78.7318 17.6L77.6349 20.3923L77.6432 20.3955L77.6516 20.3988L78.7318 17.6ZM83.3878 20.528L81.2935 22.676L81.2935 22.676L83.3878 20.528ZM86.3158 24.896L83.5341 26.0194L83.5433 26.0422L83.5529 26.0649L86.3158 24.896ZM86.3638 36.656L83.5898 35.5138L83.5801 35.5372L83.5709 35.5607L86.3638 36.656ZM83.4838 40.976L81.3895 38.828L81.3759 38.8413L81.3625 38.8547L83.4838 40.976ZM78.8758 43.904L77.7956 41.1052L77.7956 41.1052L78.8758 43.904ZM75.9478 36.8L74.3255 34.2765L74.3045 34.29L74.2837 34.3038L75.9478 36.8ZM77.9638 34.4L80.7123 35.6025L80.719 35.5871L80.7256 35.5716L77.9638 34.4ZM77.9158 27.248L75.1541 28.4197L75.1758 28.4709L75.1994 28.5213L77.9158 27.248ZM69.3718 24.752L67.6873 22.2696L67.6873 22.2696L69.3718 24.752ZM67.3078 27.248L64.5767 26.0066L64.5679 26.026L64.5593 26.0455L67.3078 27.248ZM67.3078 34.4L64.5461 35.5716L64.5526 35.5871L64.5593 35.6025L67.3078 34.4ZM72.6358 41.96C70.599 41.96 68.8955 41.6531 67.476 41.1052L65.3156 46.7028C67.5442 47.5629 70.0007 47.96 72.6358 47.96V41.96ZM67.476 41.1052C65.9949 40.5336 64.7974 39.7672 63.8341 38.828L59.6455 43.124C61.2423 44.6808 63.1487 45.8664 65.3156 46.7028L67.476 41.1052ZM63.8611 38.8547C62.8932 37.8867 62.155 36.7795 61.6338 35.5138L56.0858 37.7982C56.9086 39.7965 58.0904 41.5693 59.6185 43.0973L63.8611 38.8547ZM61.6527 35.5607C61.1575 34.2978 60.8998 32.9275 60.8998 31.424H54.8998C54.8998 33.6325 55.2821 35.7502 56.0669 37.7513L61.6527 35.5607ZM60.8998 31.424V30.272H54.8998V31.424H60.8998ZM60.8998 30.272C60.8998 28.7098 61.1715 27.302 61.6895 26.0194L56.1261 23.7726C55.3001 25.818 54.8998 27.9942 54.8998 30.272H60.8998ZM61.6707 26.0649C62.2209 24.7645 62.987 23.6423 63.9781 22.676L59.7895 18.38C58.2206 19.9097 57.0027 21.6995 56.1449 23.7271L61.6707 26.0649ZM63.9781 22.676C64.9414 21.7368 66.1389 20.9704 67.62 20.3988L65.4596 14.8012C63.2927 15.6376 61.3863 16.8232 59.7895 18.38L63.9781 22.676ZM67.62 20.3988C69.053 19.8457 70.712 19.544 72.6358 19.544V13.544C70.0796 13.544 67.6746 13.9463 65.4596 14.8012L67.62 20.3988ZM72.6358 19.544C74.5987 19.544 76.2491 19.8479 77.6349 20.3923L79.8288 14.8077C77.6305 13.9441 75.2169 13.544 72.6358 13.544V19.544ZM77.6516 20.3988C79.1327 20.9704 80.3303 21.7368 81.2935 22.676L85.4821 18.38C83.8854 16.8232 81.9789 15.6376 79.812 14.8012L77.6516 20.3988ZM81.2935 22.676C82.2747 23.6326 83.0171 24.7393 83.5341 26.0194L89.0975 23.7726C88.2705 21.7247 87.0609 19.9194 85.4821 18.38L81.2935 22.676ZM83.5529 26.0649C84.0908 27.3363 84.3718 28.7281 84.3718 30.272H90.3718C90.3718 27.9759 89.9488 25.7837 89.0787 23.7271L83.5529 26.0649ZM84.3718 30.272V31.424H90.3718V30.272H84.3718ZM84.3718 31.424C84.3718 32.9087 84.1049 34.2626 83.5898 35.5138L89.1378 37.7982C89.9667 35.7854 90.3718 33.6513 90.3718 31.424H84.3718ZM83.5709 35.5607C83.0895 36.7882 82.3708 37.8713 81.3895 38.828L85.5781 43.124C87.1569 41.5847 88.3581 39.7878 89.1567 37.7513L83.5709 35.5607ZM81.3625 38.8547C80.4409 39.7762 79.2714 40.5356 77.7956 41.1052L79.956 46.7028C82.1282 45.8644 84.0307 44.6718 85.6051 43.0973L81.3625 38.8547ZM77.7956 41.1052C76.3762 41.6531 74.6727 41.96 72.6358 41.96V47.96C75.271 47.96 77.7275 47.5629 79.956 46.7028L77.7956 41.1052ZM72.6358 40.664C74.3995 40.664 76.1288 40.2849 77.6119 39.2962L74.2837 34.3038C74.0388 34.4671 73.5601 34.664 72.6358 34.664V40.664ZM77.5701 39.3235C78.9887 38.4115 80.0396 37.14 80.7123 35.6025L75.2153 33.1975C74.992 33.708 74.6989 34.0365 74.3255 34.2765L77.5701 39.3235ZM80.7256 35.5716C81.3518 34.0955 81.6358 32.5051 81.6358 30.848H75.6358C75.6358 31.8149 75.4718 32.5925 75.2021 33.2284L80.7256 35.5716ZM81.6358 30.848C81.6358 29.1255 81.335 27.474 80.6322 25.9747L75.1994 28.5213C75.4566 29.07 75.6358 29.8185 75.6358 30.848H81.6358ZM80.6776 26.0763C80.0181 24.522 78.9869 23.2214 77.5843 22.2696L74.2153 27.2344C74.6047 27.4986 74.9175 27.862 75.1541 28.4197L80.6776 26.0763ZM77.5843 22.2696C76.1062 21.2666 74.4047 20.84 72.6358 20.84V26.84C73.4269 26.84 73.9014 27.0214 74.2153 27.2344L77.5843 22.2696ZM72.6358 20.84C70.8669 20.84 69.1654 21.2666 67.6873 22.2696L71.0563 27.2344C71.3702 27.0214 71.8447 26.84 72.6358 26.84V20.84ZM67.6873 22.2696C66.3023 23.2094 65.268 24.4858 64.5767 26.0066L70.0389 28.4894C70.3076 27.8982 70.6493 27.5106 71.0563 27.2344L67.6873 22.2696ZM64.5593 26.0455C63.9118 27.5256 63.6358 29.1512 63.6358 30.848H69.6358C69.6358 29.7928 69.8078 29.0184 70.0563 28.4505L64.5593 26.0455ZM63.6358 30.848C63.6358 32.5051 63.9198 34.0955 64.5461 35.5716L70.0696 33.2284C69.7998 32.5925 69.6358 31.8149 69.6358 30.848H63.6358ZM64.5593 35.6025C65.232 37.14 66.2829 38.4115 67.7015 39.3235L70.9461 34.2765C70.5727 34.0365 70.2796 33.708 70.0563 33.1975L64.5593 35.6025ZM67.7015 39.3235C69.1828 40.2758 70.8822 40.664 72.6358 40.664V34.664C71.7654 34.664 71.2568 34.4762 70.9461 34.2765L67.7015 39.3235ZM97.2906 43.856L96.053 46.5889L96.0746 46.5986L96.0963 46.608L97.2906 43.856ZM93.0186 40.784L90.7608 42.7595L90.7746 42.7753L90.7887 42.7909L93.0186 40.784ZM90.4746 36.416L87.6285 37.3647L87.6368 37.3896L87.6456 37.4145L90.4746 36.416ZM90.5226 25.088L87.7048 24.0584L87.696 24.0825L87.6876 24.1067L90.5226 25.088ZM93.1626 20.672L90.9327 18.6651L90.9327 18.6651L93.1626 20.672ZM109.723 17.984L111.101 15.3193L111.101 15.3193L109.723 17.984ZM114.139 21.968L111.613 23.5879L111.631 23.6157L111.65 23.6431L114.139 21.968ZM116.011 27.728V30.728H119.192L119.005 27.5518L116.011 27.728ZM107.467 27.728L104.479 27.9996L104.727 30.728H107.467V27.728ZM106.267 25.04L104.051 27.0628L104.075 27.0885L104.099 27.1137L106.267 25.04ZM100.507 24.8L98.6576 22.4375L98.632 22.4575L98.6068 22.4781L100.507 24.8ZM98.9226 27.2L101.76 28.1752L101.76 28.1752L98.9226 27.2ZM98.8266 34.352L95.9386 35.1642L95.9503 35.2057L95.9631 35.2468L98.8266 34.352ZM100.363 36.752L98.4628 39.0739L98.52 39.1206L98.5794 39.1645L100.363 36.752ZM106.987 35.744L109.546 37.3084L109.565 37.2779L109.583 37.2471L106.987 35.744ZM107.659 33.632V30.632H104.997L104.68 33.2746L107.659 33.632ZM116.203 33.632L119.198 33.8031L119.379 30.632H116.203V33.632ZM114.283 39.536L111.801 37.8504L111.79 37.8665L111.779 37.8828L114.283 39.536ZM109.771 43.52L108.411 40.8458L108.411 40.8458L109.771 43.52ZM103.291 41.96C101.299 41.96 99.7233 41.6414 98.4848 41.104L96.0963 46.608C98.2498 47.5426 100.674 47.96 103.291 47.96V41.96ZM98.5281 41.1231C97.1785 40.512 96.1014 39.7249 95.2484 38.7771L90.7887 42.7909C92.2397 44.4031 94.0107 45.664 96.053 46.5889L98.5281 41.1231ZM95.2763 38.8085C94.4114 37.8201 93.7551 36.697 93.3035 35.4175L87.6456 37.4145C88.346 39.399 89.3857 41.1879 90.7608 42.7595L95.2763 38.8085ZM93.3206 35.4673C92.8809 34.1483 92.6586 32.7731 92.6586 31.328H86.6586C86.6586 33.4029 86.9802 35.4197 87.6285 37.3647L93.3206 35.4673ZM92.6586 31.328V30.368H86.6586V31.328H92.6586ZM92.6586 30.368C92.6586 28.8278 92.8966 27.401 93.3575 26.0693L87.6876 24.1067C86.9965 26.103 86.6586 28.1962 86.6586 30.368H92.6586ZM93.3404 26.1176C93.8205 24.8034 94.5045 23.6655 95.3924 22.6789L90.9327 18.6651C89.5166 20.2385 88.4406 22.0446 87.7048 24.0584L93.3404 26.1176ZM95.3924 22.6789C96.2359 21.7417 97.298 20.9776 98.6288 20.4L96.2403 14.896C94.1792 15.7904 92.3932 17.0423 90.9327 18.6651L95.3924 22.6789ZM98.6288 20.4C99.8821 19.8562 101.415 19.544 103.291 19.544V13.544C100.75 13.544 98.379 13.9678 96.2403 14.896L98.6288 20.4ZM103.291 19.544C105.322 19.544 106.979 19.9425 108.344 20.6487L111.101 15.3193C108.754 14.1055 106.123 13.544 103.291 13.544V19.544ZM108.344 20.6486C109.751 21.3763 110.82 22.3515 111.613 23.5879L116.664 20.3481C115.281 18.1925 113.406 16.5117 111.101 15.3193L108.344 20.6486ZM111.65 23.6431C112.444 24.8235 112.916 26.2161 113.016 27.9042L119.005 27.5518C118.849 24.8879 118.073 22.4405 116.627 20.2929L111.65 23.6431ZM116.011 24.728H107.467V30.728H116.011V24.728ZM110.454 27.4564C110.299 25.7543 109.628 24.2143 108.434 22.9663L104.099 27.1137C104.313 27.3377 104.442 27.5897 104.479 27.9996L110.454 27.4564ZM108.482 23.0172C107.076 21.4777 105.165 20.936 103.291 20.936V26.936C103.673 26.936 103.882 26.9903 103.975 27.0247C104.02 27.0412 104.039 27.0538 104.044 27.0568C104.048 27.0595 104.049 27.0603 104.051 27.0628L108.482 23.0172ZM103.291 20.936C101.638 20.936 100.02 21.371 98.6576 22.4375L102.355 27.1625C102.465 27.077 102.703 26.936 103.291 26.936V20.936ZM98.6068 22.4781C97.3953 23.4694 96.5839 24.7749 96.0855 26.2248L101.76 28.1752C101.965 27.5771 102.21 27.2826 102.406 27.1219L98.6068 22.4781ZM96.0855 26.2248C95.5987 27.6408 95.3946 29.2024 95.3946 30.848H101.395C101.395 29.6776 101.542 28.8072 101.76 28.1752L96.0855 26.2248ZM95.3946 30.848C95.3946 32.3734 95.5613 33.8228 95.9386 35.1642L101.715 33.5398C101.516 32.8332 101.395 31.9466 101.395 30.848H95.3946ZM95.9631 35.2468C96.426 36.7281 97.2286 38.0641 98.4628 39.0739L102.262 34.4301C102.088 34.2879 101.867 34.0239 101.69 33.4572L95.9631 35.2468ZM98.5794 39.1645C99.9778 40.1982 101.642 40.568 103.291 40.568V34.568C102.507 34.568 102.219 34.3938 102.146 34.3395L98.5794 39.1645ZM103.291 40.568C104.53 40.568 105.794 40.3479 106.944 39.7428L104.149 34.4332C104.083 34.4681 103.843 34.568 103.291 34.568V40.568ZM106.944 39.7428C108.022 39.1755 108.907 38.3546 109.546 37.3084L104.427 34.1796C104.362 34.2854 104.288 34.3605 104.149 34.4332L106.944 39.7428ZM109.583 37.2471C110.166 36.2391 110.5 35.1343 110.637 33.9894L104.68 33.2746C104.625 33.7297 104.511 34.0329 104.39 34.2409L109.583 37.2471ZM107.659 36.632H116.203V30.632H107.659V36.632ZM113.207 33.4608C113.107 35.2116 112.619 36.6452 111.801 37.8504L116.764 41.2216C118.25 39.0348 119.042 36.5324 119.198 33.8031L113.207 33.4608ZM111.779 37.8828C110.958 39.1266 109.856 40.111 108.411 40.8458L111.13 46.1942C113.461 45.009 115.367 43.3374 116.786 41.1892L111.779 37.8828ZM108.411 40.8458C107.003 41.5619 105.32 41.96 103.291 41.96V47.96C106.125 47.96 108.763 47.3981 111.13 46.1942L108.411 40.8458ZM119.672 44H116.672V47H119.672V44ZM119.672 17.504V14.504H116.672V17.504H119.672ZM126.584 17.504H129.584V14.504H126.584V17.504ZM126.584 29.024V32.024H129.584V29.024H126.584ZM126.488 29.024H123.488V32.024H126.488V29.024ZM128.792 20.288L126.383 18.4997L126.375 18.5115L126.366 18.5235L128.792 20.288ZM136.568 17.12H139.568V14.12H136.568V17.12ZM136.568 24.608V27.608H139.568V24.608H136.568ZM129.992 26.192L127.903 24.0393L127.887 24.0548L127.871 24.0707L129.992 26.192ZM128.408 44V47H131.408V44H128.408ZM122.672 44V17.504H116.672V44H122.672ZM119.672 20.504H126.584V14.504H119.672V20.504ZM123.584 17.504V29.024H129.584V17.504H123.584ZM126.584 26.024H126.488V32.024H126.584V26.024ZM129.488 29.024C129.488 25.6877 130.183 23.4763 131.218 22.0525L126.366 18.5235C124.329 21.3237 123.488 24.9363 123.488 29.024H129.488ZM131.201 22.0763C132.136 20.8161 133.432 20.12 135.512 20.12V14.12C131.768 14.12 128.584 15.5359 126.383 18.4997L131.201 22.0763ZM135.512 20.12H136.568V14.12H135.512V20.12ZM133.568 17.12V24.608H139.568V17.12H133.568ZM136.568 21.608H134.552V27.608H136.568V21.608ZM134.552 21.608C132.053 21.608 129.698 22.2965 127.903 24.0393L132.081 28.3447C132.462 27.9755 133.147 27.608 134.552 27.608V21.608ZM127.871 24.0707C126.086 25.8553 125.408 28.2427 125.408 30.752H131.408C131.408 29.2933 131.786 28.6407 132.113 28.3133L127.871 24.0707ZM125.408 30.752V44H131.408V30.752H125.408ZM128.408 41H119.672V47H128.408V41ZM154.9 44H151.9V47H154.9V44ZM154.9 36.224H157.9V33.224H154.9V36.224ZM153.46 36.224H150.46V39.224H153.46V36.224ZM152.596 25.232L150.361 27.2324L150.416 27.2944L150.475 27.3533L152.596 25.232ZM147.172 24.368L147.253 27.3669L147.253 27.3669L147.172 24.368ZM143.428 24.512L143.574 27.5084L143.428 24.512ZM139.828 24.704H136.828V27.8857L140.004 27.6988L139.828 24.704ZM139.828 17.408L139.579 14.4184L136.828 14.6476V17.408H139.828ZM142.564 17.216L142.383 14.2215L142.564 17.216ZM145.828 17.072L145.745 14.0732L145.743 14.0732L145.828 17.072ZM155.908 18.224L154.738 20.9863L154.746 20.9898L154.754 20.9932L155.908 18.224ZM160.276 21.824L157.727 23.4048L157.738 23.4231L157.749 23.4412L160.276 21.824ZM161.812 44V47H164.812V44H161.812ZM138.148 40.784L135.604 42.374L135.628 42.4114L135.652 42.4481L138.148 40.784ZM138.532 31.424L140.797 33.3911L140.81 33.3765L140.822 33.3618L138.532 31.424ZM142.9 28.688L143.789 31.5532L143.79 31.5532L142.9 28.688ZM154.42 27.824H157.42V24.824H154.42V27.824ZM154.42 32.336V35.336H157.42V32.336H154.42ZM146.548 33.248L148.555 35.4779L148.585 35.4508L148.615 35.423L146.548 33.248ZM146.548 37.952L144.482 40.127L144.511 40.1548L144.541 40.1819L146.548 37.952ZM151.3 38.432L152.519 41.1734L152.552 41.1587L152.585 41.1432L151.3 38.432ZM152.788 36.992L150.184 35.5036L150.184 35.5036L152.788 36.992ZM153.46 34.208L155.529 32.0356L150.816 27.5467L150.465 34.0461L153.46 34.208ZM155.476 36.128L158.465 36.3902L158.591 34.9515L157.545 33.9556L155.476 36.128ZM154.132 40.784L151.532 39.2886L151.525 39.2993L151.519 39.31L154.132 40.784ZM151.156 43.664L149.762 41.0078L149.748 41.0151L149.734 41.0226L151.156 43.664ZM157.9 44V36.224H151.9V44H157.9ZM154.9 33.224H153.46V39.224H154.9V33.224ZM156.46 36.224V27.92H150.46V36.224H156.46ZM156.46 27.92C156.46 26.2966 156.081 24.4745 154.718 23.1107L150.475 27.3533C150.377 27.2554 150.367 27.1891 150.388 27.254C150.414 27.3333 150.46 27.5376 150.46 27.92H156.46ZM154.832 23.2316C153.463 21.7013 151.514 21.32 149.86 21.32V27.32C150.278 27.32 150.488 27.3715 150.556 27.394C150.605 27.4106 150.494 27.3818 150.361 27.2324L154.832 23.2316ZM149.86 21.32C149.211 21.32 148.282 21.3369 147.091 21.3691L147.253 27.3669C148.431 27.3351 149.294 27.32 149.86 27.32V21.32ZM147.091 21.3691C145.883 21.4017 144.614 21.4506 143.282 21.5156L143.574 27.5084C144.867 27.4454 146.093 27.3983 147.253 27.3669L147.091 21.3691ZM143.282 21.5156C141.962 21.58 140.752 21.6445 139.652 21.7092L140.004 27.6988C141.081 27.6355 142.271 27.572 143.574 27.5084L143.282 21.5156ZM142.828 24.704V17.408H136.828V24.704H142.828ZM140.077 20.3976C140.816 20.3361 141.705 20.2736 142.746 20.2105L142.383 14.2215C141.312 14.2864 140.376 14.3519 139.579 14.4184L140.077 20.3976ZM142.746 20.2105C143.768 20.1485 144.824 20.1019 145.914 20.0708L145.743 14.0732C144.593 14.1061 143.473 14.1555 142.383 14.2215L142.746 20.2105ZM145.912 20.0708C147.041 20.0395 148.069 20.024 148.996 20.024V14.024C148.004 14.024 146.919 14.0405 145.745 14.0732L145.912 20.0708ZM148.996 20.024C151.439 20.024 153.32 20.3853 154.738 20.9863L157.079 15.4617C154.721 14.4627 151.994 14.024 148.996 14.024V20.024ZM154.754 20.9932C156.16 21.5789 157.099 22.3926 157.727 23.4048L162.826 20.2432C161.47 18.0554 159.497 16.4691 157.062 15.4548L154.754 20.9932ZM157.749 23.4412C158.385 24.4342 158.812 25.8614 158.812 27.92H164.812C164.812 25.0506 164.216 22.4138 162.803 20.2068L157.749 23.4412ZM158.812 27.92V44H164.812V27.92H158.812ZM161.812 41H154.9V47H161.812V41ZM146.5 41.672C145.01 41.672 143.806 41.4034 142.825 40.9455L140.288 46.3825C142.186 47.2686 144.279 47.672 146.5 47.672V41.672ZM142.825 40.9455C141.852 40.4915 141.153 39.8831 140.644 39.1199L135.652 42.4481C136.807 44.1809 138.38 45.4925 140.288 46.3825L142.825 40.9455ZM140.692 39.194C140.237 38.4654 139.948 37.5167 139.948 36.224H133.948C133.948 38.4513 134.46 40.5426 135.604 42.374L140.692 39.194ZM139.948 36.224C139.948 34.7886 140.318 33.9428 140.797 33.3911L136.267 29.4569C134.634 31.3372 133.948 33.6914 133.948 36.224H139.948ZM140.822 33.3618C141.445 32.6266 142.375 31.9922 143.789 31.5532L142.011 25.8228C139.714 26.5358 137.732 27.7254 136.242 29.4862L140.822 33.3618ZM143.79 31.5532C145.299 31.0847 147.118 30.824 149.284 30.824V24.824C146.651 24.824 144.213 25.1393 142.011 25.8228L143.79 31.5532ZM149.284 30.824H154.42V24.824H149.284V30.824ZM151.42 27.824V32.336H157.42V27.824H151.42ZM154.42 29.336H149.284V35.336H154.42V29.336ZM149.284 29.336C147.6 29.336 145.848 29.7755 144.482 31.073L148.615 35.423C148.588 35.4481 148.585 35.4355 148.661 35.41C148.75 35.3805 148.943 35.336 149.284 35.336V29.336ZM144.541 31.0181C143.17 32.2519 142.588 33.9002 142.588 35.6H148.588C148.588 35.4271 148.616 35.3776 148.606 35.4017C148.601 35.4125 148.593 35.4301 148.579 35.449C148.573 35.4579 148.567 35.465 148.562 35.4704C148.558 35.4757 148.555 35.4781 148.555 35.4779L144.541 31.0181ZM142.588 35.6C142.588 37.3024 143.19 38.8998 144.482 40.127L148.615 35.777C148.598 35.7616 148.595 35.7557 148.598 35.7598C148.601 35.7643 148.604 35.7702 148.606 35.7743C148.611 35.7872 148.588 35.7429 148.588 35.6H142.588ZM144.541 40.1819C145.91 41.4134 147.639 41.816 149.284 41.816V35.816C148.562 35.816 148.467 35.6426 148.555 35.7221L144.541 40.1819ZM149.284 41.816C150.382 41.816 151.485 41.6329 152.519 41.1734L150.082 35.6906C149.964 35.7431 149.722 35.816 149.284 35.816V41.816ZM152.585 41.1432C153.828 40.5543 154.752 39.6027 155.393 38.4804L150.184 35.5036C150.115 35.6231 150.064 35.6793 150.042 35.7002C150.023 35.7185 150.017 35.7206 150.016 35.7208L152.585 41.1432ZM155.393 38.4804C156.1 37.244 156.379 35.7951 156.456 34.3699L150.465 34.0461C150.414 34.9889 150.245 35.396 150.184 35.5036L155.393 38.4804ZM151.391 36.3804L153.407 38.3004L157.545 33.9556L155.529 32.0356L151.391 36.3804ZM152.488 35.8658C152.357 37.3571 152.005 38.4661 151.532 39.2886L156.733 42.2794C157.732 40.5419 158.276 38.5469 158.465 36.3902L152.488 35.8658ZM151.519 39.31C151.102 40.0501 150.535 40.6018 149.762 41.0078L152.551 46.3202C154.337 45.3822 155.755 44.0139 156.745 42.258L151.519 39.31ZM149.734 41.0226C149.038 41.3976 148.008 41.672 146.5 41.672V47.672C148.704 47.672 150.779 47.2744 152.579 46.3054L149.734 41.0226ZM168.13 42.512L166.369 44.9412L166.381 44.9497L166.393 44.958L168.13 42.512ZM164.578 35.792V32.792H161.406L161.582 35.9584L164.578 35.792ZM172.258 35.792L175.22 35.318L174.816 32.792H172.258V35.792ZM173.746 37.856L175.41 35.3598L175.41 35.3598L173.746 37.856ZM180.274 38.24L181.388 41.0254L181.415 41.0144L181.442 41.0029L180.274 38.24ZM180.562 34.928L178.841 37.3857L178.883 37.4152L178.927 37.4433L180.562 34.928ZM177.058 34.016L176.744 36.9995L176.76 37.0012L176.776 37.0027L177.058 34.016ZM175.234 33.824L175.548 30.8405L175.543 30.84L175.234 33.824ZM167.746 31.04L169.8 28.8541L169.8 28.8541L167.746 31.04ZM166.786 20.576L169.163 22.4051L169.175 22.3906L169.186 22.376L166.786 20.576ZM170.77 17.696L169.71 14.8892L169.71 14.8892L170.77 17.696ZM185.17 19.088L183.416 21.5219L183.428 21.5305L183.44 21.5389L185.17 19.088ZM188.626 25.76V28.76H191.76L191.623 25.6283L188.626 25.76ZM180.946 25.76L177.983 26.234L178.387 28.76H180.946V25.76ZM179.65 23.744L177.801 26.1065L177.833 26.132L177.866 26.1565L179.65 23.744ZM174.034 23.408L172.588 20.7794L172.559 20.7952L172.53 20.8117L174.034 23.408ZM173.986 26.384L172.529 29.0065L172.558 29.023L172.588 29.0388L173.986 26.384ZM176.866 27.104L176.502 30.0819L176.527 30.0849L176.552 30.0875L176.866 27.104ZM178.69 27.296L178.376 30.2795L178.38 30.28L178.69 27.296ZM186.514 30.128L184.581 32.4227L184.603 32.441L184.625 32.4588L186.514 30.128ZM187.81 40.784L185.417 38.9747L185.402 38.9935L185.388 39.0125L187.81 40.784ZM183.634 43.808L182.553 41.0092L182.545 41.0125L182.537 41.0157L183.634 43.808ZM177.202 41.864C173.733 41.864 171.395 41.1514 169.867 40.066L166.393 44.958C169.28 47.0086 172.99 47.864 177.202 47.864V41.864ZM169.89 40.0828C168.46 39.0469 167.686 37.6638 167.573 35.6256L161.582 35.9584C161.789 39.6802 163.383 42.7771 166.369 44.9412L169.89 40.0828ZM164.578 38.792H172.258V32.792H164.578V38.792ZM169.295 36.266C169.59 38.1094 170.73 39.451 172.081 40.3522L175.41 35.3598C175.212 35.2278 175.156 35.1491 175.159 35.1536C175.161 35.1569 175.175 35.1763 175.189 35.2108C175.204 35.2459 175.214 35.2833 175.22 35.318L169.295 36.266ZM172.081 40.3522C173.63 41.3846 175.516 41.72 177.394 41.72V35.72C176.135 35.72 175.589 35.4794 175.41 35.3598L172.081 40.3522ZM177.394 41.72C178.786 41.72 180.145 41.5227 181.388 41.0254L179.159 35.4546C178.803 35.5973 178.241 35.72 177.394 35.72V41.72ZM181.442 41.0029C182.209 40.6786 183.01 40.1632 183.618 39.345C184.249 38.4952 184.522 37.5199 184.522 36.56H178.522C178.522 36.3681 178.586 36.0568 178.801 35.767C178.993 35.5088 179.17 35.4494 179.105 35.4771L181.442 41.0029ZM184.522 36.56C184.522 34.7205 183.552 33.2938 182.197 32.4127L178.927 37.4433C178.937 37.4504 178.816 37.373 178.696 37.1691C178.567 36.95 178.522 36.7229 178.522 36.56H184.522ZM182.282 32.4703C180.947 31.5356 179.076 31.1931 177.339 31.0293L176.776 37.0027C177.523 37.0733 178.07 37.1684 178.45 37.2673C178.856 37.373 178.928 37.4466 178.841 37.3857L182.282 32.4703ZM177.372 31.0325L175.548 30.8405L174.92 36.8075L176.744 36.9995L177.372 31.0325ZM175.543 30.84C172.465 30.5206 170.722 29.7202 169.8 28.8541L165.691 33.2259C167.97 35.3678 171.218 36.4234 174.924 36.808L175.543 30.84ZM169.8 28.8541C168.827 27.9389 168.346 26.8525 168.346 25.376H162.346C162.346 28.4435 163.464 31.1331 165.691 33.2259L169.8 28.8541ZM168.346 25.376C168.346 23.9237 168.696 23.0134 169.163 22.4051L164.408 18.7469C162.956 20.6346 162.346 22.9243 162.346 25.376H168.346ZM169.186 22.376C169.759 21.6108 170.593 20.969 171.829 20.5028L169.71 14.8892C167.554 15.703 165.732 16.9812 164.386 18.776L169.186 22.376ZM171.829 20.5028C173.126 20.0133 174.693 19.736 176.578 19.736V13.736C174.11 13.736 171.805 14.0987 169.71 14.8892L171.829 20.5028ZM176.578 19.736C179.702 19.736 181.893 20.4248 183.416 21.5219L186.923 16.6541C184.094 14.6152 180.557 13.736 176.578 13.736V19.736ZM183.44 21.5389C184.778 22.484 185.537 23.8066 185.628 25.8917L191.623 25.6283C191.458 21.8894 189.913 18.764 186.9 16.6371L183.44 21.5389ZM188.626 22.76H180.946V28.76H188.626V22.76ZM183.908 25.286C183.639 23.6075 182.711 22.2766 181.433 21.3315L177.866 26.1565C177.984 26.2433 178.009 26.2896 178.002 26.2783C177.999 26.2739 177.994 26.2639 177.989 26.2507C177.984 26.2376 177.983 26.2306 177.983 26.234L183.908 25.286ZM181.498 21.3815C180.037 20.2374 178.223 19.88 176.482 19.88V25.88C177.492 25.88 177.791 26.0986 177.801 26.1065L181.498 21.3815ZM176.482 19.88C175.157 19.88 173.801 20.112 172.588 20.7794L175.479 26.0366C175.546 26 175.822 25.88 176.482 25.88V19.88ZM172.53 20.8117C171.106 21.6365 170.122 23.0644 170.122 24.896H176.122C176.122 25.0721 176.073 25.3414 175.907 25.6117C175.75 25.8687 175.575 25.982 175.537 26.0043L172.53 20.8117ZM170.122 24.896C170.122 25.6695 170.291 26.4996 170.743 27.2784C171.197 28.0602 171.839 28.6236 172.529 29.0065L175.442 23.7615C175.556 23.8244 175.766 23.9798 175.932 24.2656C176.096 24.5484 176.122 24.7945 176.122 24.896H170.122ZM172.588 29.0388C173.694 29.6207 175.1 29.9109 176.502 30.0819L177.229 24.1261C176.008 23.9771 175.493 23.7873 175.383 23.7292L172.588 29.0388ZM176.552 30.0875L178.376 30.2795L179.004 24.3125L177.18 24.1205L176.552 30.0875ZM178.38 30.28C181.42 30.5955 183.375 31.4073 184.581 32.4227L188.446 27.8333C186.004 25.7767 182.743 24.7005 178.999 24.312L178.38 30.28ZM184.625 32.4588C185.753 33.3728 186.298 34.4878 186.298 36.08H192.298C192.298 32.7442 190.986 29.8912 188.402 27.7972L184.625 32.4588ZM186.298 36.08C186.298 37.3259 185.972 38.2404 185.417 38.9747L190.203 42.5933C191.631 40.7036 192.298 38.4821 192.298 36.08H186.298ZM185.388 39.0125C184.831 39.7741 183.951 40.4698 182.553 41.0092L184.714 46.6068C186.964 45.7382 188.868 44.4179 190.231 42.5555L185.388 39.0125ZM182.537 41.0157C181.181 41.5484 179.428 41.864 177.202 41.864V47.864C179.967 47.864 182.502 47.4756 184.731 46.6003L182.537 41.0157ZM198.395 43.328L197.245 46.0988L197.254 46.1026L197.263 46.1063L198.395 43.328ZM194.699 39.824L191.984 41.1014L191.984 41.1014L194.699 39.824ZM193.547 33.2L190.547 33.1936V33.2H193.547ZM193.595 10.592V7.592H190.601L190.595 10.5856L193.595 10.592ZM201.659 10.592L204.659 10.5983L204.665 7.592H201.659V10.592ZM201.611 33.44L198.611 33.4337V33.44H201.611ZM202.523 36.176L200.348 38.2422L200.401 38.298L200.456 38.351L202.523 36.176ZM208.907 37.088H211.907V34.088H208.907V37.088ZM208.907 44.384V47.384H211.907V44.384H208.907ZM189.707 23.84H186.707V26.84H189.707V23.84ZM189.707 17.504V14.504H186.707V17.504H189.707ZM208.907 17.504H211.907V14.504H208.907V17.504ZM208.907 23.84V26.84H211.907V23.84H208.907ZM205.307 41.384C202.626 41.384 200.754 41.0499 199.527 40.5497L197.263 46.1063C199.491 47.0141 202.227 47.384 205.307 47.384V41.384ZM199.545 40.5572C198.524 40.1335 197.857 39.4903 197.413 38.5466L191.984 41.1014C193.076 43.4217 194.873 45.1145 197.245 46.0988L199.545 40.5572ZM197.413 38.5466C196.908 37.4722 196.547 35.7588 196.547 33.2H190.547C190.547 36.2092 190.954 38.9117 191.984 41.1014L197.413 38.5466ZM196.547 33.2064L196.595 10.5984L190.595 10.5856L190.547 33.1936L196.547 33.2064ZM193.595 13.592H201.659V7.592H193.595V13.592ZM198.659 10.5857L198.611 33.4337L204.611 33.4463L204.659 10.5983L198.659 10.5857ZM198.611 33.44C198.611 35.1246 199.05 36.8765 200.348 38.2422L204.698 34.1098C204.723 34.1362 204.71 34.1398 204.685 34.0633C204.655 33.9746 204.611 33.7813 204.611 33.44H198.611ZM200.456 38.351C201.822 39.6485 203.574 40.088 205.259 40.088V34.088C204.917 34.088 204.724 34.0435 204.635 34.0139C204.559 33.9885 204.563 33.9759 204.589 34.001L200.456 38.351ZM205.259 40.088H208.907V34.088H205.259V40.088ZM205.907 37.088V44.384H211.907V37.088H205.907ZM208.907 41.384H205.307V47.384H208.907V41.384ZM192.707 23.84V17.504H186.707V23.84H192.707ZM189.707 20.504H208.907V14.504H189.707V20.504ZM205.907 17.504V23.84H211.907V17.504H205.907ZM208.907 20.84H189.707V26.84H208.907V20.84ZM213.877 44H210.877V47H213.877V44ZM213.877 17.504V14.504H210.877V17.504H213.877ZM222.613 17.504H225.613V14.504H222.613V17.504ZM222.613 44V47H225.613V44H222.613ZM210.517 23.84H207.517V26.84H210.517V23.84ZM210.517 17.504V14.504H207.517V17.504H210.517ZM222.613 17.504H225.613V14.504H222.613V17.504ZM222.613 23.84V26.84H225.613V23.84H222.613ZM213.925 14.192L211.678 16.1797L211.718 16.2255L211.761 16.2696L213.925 14.192ZM213.925 7.904L211.721 5.86916L211.717 5.87283L213.925 7.904ZM220.933 7.904L218.686 9.89172L218.705 9.91364L218.725 9.93517L220.933 7.904ZM220.933 14.192L223.141 16.2232L223.161 16.2016L223.18 16.1797L220.933 14.192ZM216.877 44V17.504H210.877V44H216.877ZM213.877 20.504H222.613V14.504H213.877V20.504ZM219.613 17.504V44H225.613V17.504H219.613ZM222.613 41H213.877V47H222.613V41ZM213.517 23.84V17.504H207.517V23.84H213.517ZM210.517 20.504H222.613V14.504H210.517V20.504ZM219.613 17.504V23.84H225.613V17.504H219.613ZM222.613 20.84H210.517V26.84H222.613V20.84ZM217.477 12.392C216.917 12.392 216.559 12.3207 216.349 12.2498C216.155 12.1844 216.099 12.1244 216.089 12.1144L211.761 16.2696C213.305 17.8786 215.425 18.392 217.477 18.392V12.392ZM216.172 12.2043C215.994 12.0036 215.821 11.6904 215.821 11.024H209.821C209.821 12.9176 210.384 14.7164 211.678 16.1797L216.172 12.2043ZM215.821 11.024C215.821 10.3545 215.995 10.0851 216.133 9.93517L211.717 5.87283C210.383 7.32289 209.821 9.13354 209.821 11.024H215.821ZM216.129 9.93884C216.138 9.92999 216.366 9.656 217.429 9.656V3.656C215.356 3.656 213.248 4.21401 211.721 5.86916L216.129 9.93884ZM217.429 9.656C217.98 9.656 218.316 9.72912 218.498 9.7941C218.586 9.82519 218.634 9.85274 218.655 9.86705C218.676 9.88046 218.683 9.88842 218.686 9.89172L223.18 5.91628C221.66 4.1983 219.501 3.656 217.429 3.656V9.656ZM218.725 9.93517C218.863 10.0851 219.037 10.3545 219.037 11.024H225.037C225.037 9.13354 224.475 7.32289 223.141 5.87283L218.725 9.93517ZM219.037 11.024C219.037 11.6904 218.864 12.0036 218.686 12.2043L223.18 16.1797C224.474 14.7164 225.037 12.9176 225.037 11.024H219.037ZM218.725 12.1608C218.723 12.1631 218.716 12.1712 218.694 12.1851C218.67 12.1999 218.621 12.2274 218.533 12.258C218.349 12.3218 218.017 12.392 217.477 12.392V18.392C219.507 18.392 221.624 17.8723 223.141 16.2232L218.725 12.1608ZM228.075 44H225.075V47H228.075V44ZM228.075 17.504V14.504H225.075V17.504H228.075ZM234.987 17.504H237.987V14.504H234.987V17.504ZM234.987 28.88V31.88H237.987V28.88H234.987ZM234.603 28.88H231.603V31.88H234.603V28.88ZM235.659 22.064L238.451 23.161L238.455 23.1526L238.458 23.1442L235.659 22.064ZM238.779 17.984L237.169 15.453L237.155 15.4614L237.142 15.47L238.779 17.984ZM251.211 19.664L248.879 21.5516L248.896 21.5719L248.913 21.5918L251.211 19.664ZM253.707 44V47H256.707V44H253.707ZM244.971 44H241.971V47H244.971V44ZM243.867 25.616L241.615 27.5979L241.657 27.6457L241.701 27.6917L243.867 25.616ZM237.915 25.616L235.751 23.5384L235.749 23.5403L237.915 25.616ZM236.811 44V47H239.811V44H236.811ZM231.075 44V17.504H225.075V44H231.075ZM228.075 20.504H234.987V14.504H228.075V20.504ZM231.987 17.504V28.88H237.987V17.504H231.987ZM234.987 25.88H234.603V31.88H234.987V25.88ZM237.603 28.88C237.603 26.3552 237.93 24.488 238.451 23.161L232.867 20.967C231.98 23.224 231.603 25.9008 231.603 28.88H237.603ZM238.458 23.1442C238.979 21.7932 239.663 20.9883 240.416 20.498L237.142 15.47C235.143 16.7717 233.747 18.6868 232.86 20.9838L238.458 23.1442ZM240.39 20.515C241.232 19.979 242.345 19.64 243.867 19.64V13.64C241.422 13.64 239.142 14.197 237.169 15.453L240.39 20.515ZM243.867 19.64H244.251V13.64H243.867V19.64ZM244.251 19.64C246.516 19.64 247.912 20.3562 248.879 21.5516L253.543 17.7764C251.247 14.9398 248.002 13.64 244.251 13.64V19.64ZM248.913 21.5918C249.922 22.7957 250.707 25.0152 250.707 28.832H256.707C256.707 24.3928 255.828 20.5003 253.51 17.7362L248.913 21.5918ZM250.707 28.832V44H256.707V28.832H250.707ZM253.707 41H244.971V47H253.707V41ZM247.971 44V28.592H241.971V44H247.971ZM247.971 28.592C247.971 26.722 247.382 24.9475 246.033 23.5403L241.701 27.6917C241.825 27.8205 241.971 28.03 241.971 28.592H247.971ZM246.119 23.6341C244.747 22.0742 242.887 21.416 240.939 21.416V27.416C241.488 27.416 241.58 27.5578 241.615 27.5979L246.119 23.6341ZM240.939 21.416C238.987 21.416 237.158 22.0726 235.751 23.5384L240.079 27.6936C240.208 27.5594 240.396 27.416 240.939 27.416V21.416ZM235.749 23.5403C234.373 24.9768 233.811 26.8015 233.811 28.688H239.811C239.811 28.0145 239.986 27.7912 240.081 27.6917L235.749 23.5403ZM233.811 28.688V44H239.811V28.688H233.811ZM236.811 41H228.075V47H236.811V41ZM274.647 44H271.647V47H274.647V44ZM274.647 36.224H277.647V33.224H274.647V36.224ZM273.207 36.224H270.207V39.224H273.207V36.224ZM272.343 25.232L270.107 27.2324L270.163 27.2944L270.222 27.3533L272.343 25.232ZM266.919 24.368L267 27.3669L267 27.3669L266.919 24.368ZM263.175 24.512L263.321 27.5084L263.175 24.512ZM259.575 24.704H256.575V27.8857L259.751 27.6988L259.575 24.704ZM259.575 17.408L259.326 14.4184L256.575 14.6476V17.408H259.575ZM262.311 17.216L262.13 14.2215L262.311 17.216ZM265.575 17.072L265.492 14.0732L265.489 14.0732L265.575 17.072ZM275.655 18.224L274.485 20.9863L274.493 20.9898L274.501 20.9932L275.655 18.224ZM280.023 21.824L277.473 23.4048L277.485 23.4231L277.496 23.4412L280.023 21.824ZM281.559 44V47H284.559V44H281.559ZM257.895 40.784L255.351 42.374L255.375 42.4114L255.399 42.4481L257.895 40.784ZM258.279 31.424L260.544 33.3911L260.557 33.3765L260.569 33.3618L258.279 31.424ZM262.647 28.688L263.536 31.5532L263.536 31.5532L262.647 28.688ZM274.167 27.824H277.167V24.824H274.167V27.824ZM274.167 32.336V35.336H277.167V32.336H274.167ZM266.295 33.248L268.302 35.4779L268.332 35.4508L268.361 35.423L266.295 33.248ZM266.295 37.952L264.229 40.127L264.258 40.1548L264.288 40.1819L266.295 37.952ZM271.047 38.432L272.266 41.1734L272.299 41.1587L272.331 41.1432L271.047 38.432ZM272.535 36.992L269.93 35.5036L269.93 35.5036L272.535 36.992ZM273.207 34.208L275.276 32.0356L270.563 27.5467L270.212 34.0461L273.207 34.208ZM275.223 36.128L278.212 36.3902L278.338 34.9515L277.292 33.9556L275.223 36.128ZM273.879 40.784L271.278 39.2886L271.272 39.2993L271.266 39.31L273.879 40.784ZM270.903 43.664L269.509 41.0078L269.495 41.0151L269.481 41.0226L270.903 43.664ZM277.647 44V36.224H271.647V44H277.647ZM274.647 33.224H273.207V39.224H274.647V33.224ZM276.207 36.224V27.92H270.207V36.224H276.207ZM276.207 27.92C276.207 26.2966 275.828 24.4745 274.464 23.1107L270.222 27.3533C270.124 27.2554 270.114 27.1891 270.135 27.254C270.161 27.3333 270.207 27.5376 270.207 27.92H276.207ZM274.579 23.2316C273.21 21.7013 271.261 21.32 269.607 21.32V27.32C270.025 27.32 270.235 27.3715 270.302 27.394C270.352 27.4106 270.241 27.3818 270.107 27.2324L274.579 23.2316ZM269.607 21.32C268.958 21.32 268.029 21.3369 266.838 21.3691L267 27.3669C268.177 27.3351 269.041 27.32 269.607 27.32V21.32ZM266.838 21.3691C265.63 21.4017 264.36 21.4506 263.029 21.5156L263.321 27.5084C264.614 27.4454 265.84 27.3983 267 27.3669L266.838 21.3691ZM263.029 21.5156C261.709 21.58 260.499 21.6445 259.399 21.7092L259.751 27.6988C260.828 27.6355 262.017 27.572 263.321 27.5084L263.029 21.5156ZM262.575 24.704V17.408H256.575V24.704H262.575ZM259.824 20.3976C260.563 20.3361 261.452 20.2736 262.493 20.2105L262.13 14.2215C261.059 14.2864 260.123 14.3519 259.326 14.4184L259.824 20.3976ZM262.493 20.2105C263.515 20.1485 264.571 20.1019 265.661 20.0708L265.489 14.0732C264.339 14.1061 263.219 14.1555 262.13 14.2215L262.493 20.2105ZM265.658 20.0708C266.788 20.0395 267.816 20.024 268.743 20.024V14.024C267.751 14.024 266.666 14.0405 265.492 14.0732L265.658 20.0708ZM268.743 20.024C271.186 20.024 273.067 20.3853 274.485 20.9863L276.826 15.4617C274.468 14.4627 271.741 14.024 268.743 14.024V20.024ZM274.501 20.9932C275.907 21.5789 276.846 22.3926 277.473 23.4048L282.573 20.2432C281.216 18.0554 279.243 16.4691 276.809 15.4548L274.501 20.9932ZM277.496 23.4412C278.132 24.4342 278.559 25.8614 278.559 27.92H284.559C284.559 25.0506 283.962 22.4138 282.55 20.2068L277.496 23.4412ZM278.559 27.92V44H284.559V27.92H278.559ZM281.559 41H274.647V47H281.559V41ZM266.247 41.672C264.756 41.672 263.553 41.4034 262.572 40.9455L260.035 46.3825C261.933 47.2686 264.026 47.672 266.247 47.672V41.672ZM262.572 40.9455C261.599 40.4915 260.9 39.8831 260.391 39.1199L255.399 42.4481C256.554 44.1809 258.127 45.4925 260.035 46.3825L262.572 40.9455ZM260.439 39.194C259.984 38.4654 259.695 37.5167 259.695 36.224H253.695C253.695 38.4513 254.207 40.5426 255.351 42.374L260.439 39.194ZM259.695 36.224C259.695 34.7886 260.065 33.9428 260.544 33.3911L256.014 29.4569C254.381 31.3372 253.695 33.6914 253.695 36.224H259.695ZM260.569 33.3618C261.191 32.6266 262.122 31.9922 263.536 31.5532L261.758 25.8228C259.461 26.5358 257.479 27.7254 255.989 29.4862L260.569 33.3618ZM263.536 31.5532C265.046 31.0847 266.865 30.824 269.031 30.824V24.824C266.398 24.824 263.96 25.1393 261.758 25.8228L263.536 31.5532ZM269.031 30.824H274.167V24.824H269.031V30.824ZM271.167 27.824V32.336H277.167V27.824H271.167ZM274.167 29.336H269.031V35.336H274.167V29.336ZM269.031 29.336C267.347 29.336 265.595 29.7755 264.229 31.073L268.361 35.423C268.335 35.4481 268.331 35.4355 268.408 35.41C268.497 35.3805 268.69 35.336 269.031 35.336V29.336ZM264.288 31.0181C262.917 32.2519 262.335 33.9002 262.335 35.6H268.335C268.335 35.4271 268.363 35.3776 268.353 35.4017C268.348 35.4125 268.339 35.4301 268.326 35.449C268.32 35.4579 268.314 35.465 268.309 35.4704C268.305 35.4757 268.302 35.4781 268.302 35.4779L264.288 31.0181ZM262.335 35.6C262.335 37.3024 262.937 38.8998 264.229 40.127L268.361 35.777C268.345 35.7616 268.342 35.7557 268.345 35.7598C268.348 35.7643 268.351 35.7702 268.353 35.7743C268.358 35.7872 268.335 35.7429 268.335 35.6H262.335ZM264.288 40.1819C265.657 41.4134 267.386 41.816 269.031 41.816V35.816C268.309 35.816 268.214 35.6426 268.302 35.7221L264.288 40.1819ZM269.031 41.816C270.129 41.816 271.232 41.6329 272.266 41.1734L269.829 35.6906C269.711 35.7431 269.469 35.816 269.031 35.816V41.816ZM272.331 41.1432C273.575 40.5543 274.499 39.6027 275.14 38.4804L269.93 35.5036C269.862 35.6231 269.811 35.6793 269.789 35.7002C269.77 35.7185 269.763 35.7206 269.763 35.7208L272.331 41.1432ZM275.14 38.4804C275.846 37.244 276.126 35.7951 276.203 34.3699L270.212 34.0461C270.161 34.9889 269.992 35.396 269.93 35.5036L275.14 38.4804ZM271.138 36.3804L273.154 38.3004L277.292 33.9556L275.276 32.0356L271.138 36.3804ZM272.235 35.8658C272.104 37.3571 271.751 38.4661 271.278 39.2886L276.48 42.2794C277.479 40.5419 278.023 38.5469 278.212 36.3902L272.235 35.8658ZM271.266 39.31C270.849 40.0501 270.282 40.6018 269.509 41.0078L272.298 46.3202C274.084 45.3822 275.502 44.0139 276.492 42.258L271.266 39.31ZM269.481 41.0226C268.784 41.3976 267.755 41.672 266.247 41.672V47.672C268.451 47.672 270.526 47.2744 272.325 46.3054L269.481 41.0226ZM292.148 43.328L290.998 46.0988L291.007 46.1026L291.017 46.1063L292.148 43.328ZM288.452 39.824L285.738 41.1014L285.738 41.1014L288.452 39.824ZM287.3 33.2L284.3 33.1936V33.2H287.3ZM287.348 10.592V7.592H284.355L284.348 10.5856L287.348 10.592ZM295.412 10.592L298.412 10.5983L298.419 7.592H295.412V10.592ZM295.364 33.44L292.364 33.4337V33.44H295.364ZM296.276 36.176L294.101 38.2422L294.154 38.298L294.21 38.351L296.276 36.176ZM302.66 37.088H305.66V34.088H302.66V37.088ZM302.66 44.384V47.384H305.66V44.384H302.66ZM283.46 23.84H280.46V26.84H283.46V23.84ZM283.46 17.504V14.504H280.46V17.504H283.46ZM302.66 17.504H305.66V14.504H302.66V17.504ZM302.66 23.84V26.84H305.66V23.84H302.66ZM299.06 41.384C296.38 41.384 294.508 41.0499 293.28 40.5497L291.017 46.1063C293.245 47.0141 295.981 47.384 299.06 47.384V41.384ZM293.299 40.5572C292.278 40.1335 291.611 39.4903 291.167 38.5466L285.738 41.1014C286.83 43.4217 288.627 45.1145 290.998 46.0988L293.299 40.5572ZM291.167 38.5466C290.661 37.4722 290.3 35.7588 290.3 33.2H284.3C284.3 36.2092 284.708 38.9117 285.738 41.1014L291.167 38.5466ZM290.3 33.2064L290.348 10.5984L284.348 10.5856L284.3 33.1936L290.3 33.2064ZM287.348 13.592H295.412V7.592H287.348V13.592ZM292.412 10.5857L292.364 33.4337L298.364 33.4463L298.412 10.5983L292.412 10.5857ZM292.364 33.44C292.364 35.1246 292.804 36.8765 294.101 38.2422L298.451 34.1098C298.477 34.1362 298.464 34.1398 298.438 34.0633C298.409 33.9746 298.364 33.7813 298.364 33.44H292.364ZM294.21 38.351C295.576 39.6485 297.328 40.088 299.012 40.088V34.088C298.671 34.088 298.478 34.0435 298.389 34.0139C298.313 33.9885 298.316 33.9759 298.343 34.001L294.21 38.351ZM299.012 40.088H302.66V34.088H299.012V40.088ZM299.66 37.088V44.384H305.66V37.088H299.66ZM302.66 41.384H299.06V47.384H302.66V41.384ZM286.46 23.84V17.504H280.46V23.84H286.46ZM283.46 20.504H302.66V14.504H283.46V20.504ZM299.66 17.504V23.84H305.66V17.504H299.66ZM302.66 20.84H283.46V26.84H302.66V20.84ZM307.631 44H304.631V47H307.631V44ZM307.631 17.504V14.504H304.631V17.504H307.631ZM316.367 17.504H319.367V14.504H316.367V17.504ZM316.367 44V47H319.367V44H316.367ZM304.271 23.84H301.271V26.84H304.271V23.84ZM304.271 17.504V14.504H301.271V17.504H304.271ZM316.367 17.504H319.367V14.504H316.367V17.504ZM316.367 23.84V26.84H319.367V23.84H316.367ZM307.679 14.192L305.432 16.1797L305.472 16.2255L305.515 16.2696L307.679 14.192ZM307.679 7.904L305.474 5.86916L305.471 5.87283L307.679 7.904ZM314.687 7.904L312.44 9.89172L312.459 9.91364L312.479 9.93517L314.687 7.904ZM314.687 14.192L316.894 16.2232L316.914 16.2016L316.934 16.1797L314.687 14.192ZM310.631 44V17.504H304.631V44H310.631ZM307.631 20.504H316.367V14.504H307.631V20.504ZM313.367 17.504V44H319.367V17.504H313.367ZM316.367 41H307.631V47H316.367V41ZM307.271 23.84V17.504H301.271V23.84H307.271ZM304.271 20.504H316.367V14.504H304.271V20.504ZM313.367 17.504V23.84H319.367V17.504H313.367ZM316.367 20.84H304.271V26.84H316.367V20.84ZM311.231 12.392C310.67 12.392 310.313 12.3207 310.103 12.2498C309.909 12.1844 309.852 12.1244 309.843 12.1144L305.515 16.2696C307.059 17.8786 309.179 18.392 311.231 18.392V12.392ZM309.926 12.2043C309.748 12.0036 309.575 11.6904 309.575 11.024H303.575C303.575 12.9176 304.137 14.7164 305.432 16.1797L309.926 12.2043ZM309.575 11.024C309.575 10.3545 309.749 10.0851 309.886 9.93517L305.471 5.87283C304.137 7.32289 303.575 9.13354 303.575 11.024H309.575ZM309.883 9.93884C309.891 9.92999 310.119 9.656 311.183 9.656V3.656C309.11 3.656 307.002 4.21401 305.474 5.86916L309.883 9.93884ZM311.183 9.656C311.734 9.656 312.07 9.72912 312.252 9.7941C312.339 9.82519 312.387 9.85274 312.409 9.86705C312.43 9.88046 312.437 9.88842 312.44 9.89172L316.934 5.91628C315.414 4.1983 313.255 3.656 311.183 3.656V9.656ZM312.479 9.93517C312.617 10.0851 312.791 10.3545 312.791 11.024H318.791C318.791 9.13354 318.229 7.32289 316.894 5.87283L312.479 9.93517ZM312.791 11.024C312.791 11.6904 312.617 12.0036 312.44 12.2043L316.934 16.1797C318.228 14.7164 318.791 12.9176 318.791 11.024H312.791ZM312.479 12.1608C312.477 12.1631 312.469 12.1712 312.447 12.1851C312.424 12.1999 312.375 12.2274 312.287 12.258C312.103 12.3218 311.771 12.392 311.231 12.392V18.392C313.26 18.392 315.377 17.8723 316.894 16.2232L312.479 12.1608ZM321.829 44H318.829V47H321.829V44ZM321.829 17.504V14.504H318.829V17.504H321.829ZM328.741 17.504H331.741V14.504H328.741V17.504ZM328.741 28.88V31.88H331.741V28.88H328.741ZM328.357 28.88H325.357V31.88H328.357V28.88ZM329.413 22.064L332.205 23.161L332.208 23.1526L332.212 23.1442L329.413 22.064ZM332.533 17.984L330.922 15.453L330.909 15.4614L330.896 15.47L332.533 17.984ZM344.965 19.664L342.633 21.5516L342.65 21.5719L342.666 21.5918L344.965 19.664ZM347.461 44V47H350.461V44H347.461ZM338.725 44H335.725V47H338.725V44ZM337.621 25.616L335.369 27.5979L335.411 27.6457L335.455 27.6917L337.621 25.616ZM331.669 25.616L329.505 23.5384L329.503 23.5403L331.669 25.616ZM330.565 44V47H333.565V44H330.565ZM324.829 44V17.504H318.829V44H324.829ZM321.829 20.504H328.741V14.504H321.829V20.504ZM325.741 17.504V28.88H331.741V17.504H325.741ZM328.741 25.88H328.357V31.88H328.741V25.88ZM331.357 28.88C331.357 26.3552 331.684 24.488 332.205 23.161L326.621 20.967C325.734 23.224 325.357 25.9008 325.357 28.88H331.357ZM332.212 23.1442C332.733 21.7932 333.417 20.9883 334.17 20.498L330.896 15.47C328.897 16.7717 327.501 18.6868 326.614 20.9838L332.212 23.1442ZM334.144 20.515C334.986 19.979 336.098 19.64 337.621 19.64V13.64C335.175 13.64 332.896 14.197 330.922 15.453L334.144 20.515ZM337.621 19.64H338.005V13.64H337.621V19.64ZM338.005 19.64C340.27 19.64 341.665 20.3562 342.633 21.5516L347.297 17.7764C345 14.9398 341.756 13.64 338.005 13.64V19.64ZM342.666 21.5918C343.676 22.7957 344.461 25.0152 344.461 28.832H350.461C350.461 24.3928 349.582 20.5003 347.263 17.7362L342.666 21.5918ZM344.461 28.832V44H350.461V28.832H344.461ZM347.461 41H338.725V47H347.461V41ZM341.725 44V28.592H335.725V44H341.725ZM341.725 28.592C341.725 26.722 341.135 24.9475 339.787 23.5403L335.455 27.6917C335.578 27.8205 335.725 28.03 335.725 28.592H341.725ZM339.873 23.6341C338.5 22.0742 336.641 21.416 334.693 21.416V27.416C335.241 27.416 335.334 27.5578 335.369 27.5979L339.873 23.6341ZM334.693 21.416C332.741 21.416 330.912 22.0726 329.505 23.5384L333.833 27.6936C333.962 27.5594 334.149 27.416 334.693 27.416V21.416ZM329.503 23.5403C328.126 24.9768 327.565 26.8015 327.565 28.688H333.565C333.565 28.0145 333.74 27.7912 333.835 27.6917L329.503 23.5403ZM327.565 28.688V44H333.565V28.688H327.565ZM330.565 41H321.829V47H330.565V41ZM358.897 54.464L358.688 57.4567L358.693 57.4571L358.897 54.464ZM355.153 54.08H352.153V56.6819L354.729 57.0498L355.153 54.08ZM355.153 46.784L355.494 43.8034L352.153 43.4216V46.784H355.153ZM358.897 47.12L359.175 44.1329L359.14 44.1297L359.106 44.1273L358.897 47.12ZM367.537 46.688L366.61 43.8349L366.599 43.8384L366.588 43.842L367.537 46.688ZM370.369 44.768L372.822 46.4945L370.369 44.768ZM371.281 36.08L368.562 34.8113L368.281 35.4145V36.08H371.281ZM372.625 33.2L375.624 33.2857L369.906 31.9313L372.625 33.2ZM371.329 39.056L374.023 40.3765L374.028 40.3662L374.033 40.3559L371.329 39.056ZM367.873 42.848L366.338 40.2707L366.325 40.278L366.313 40.2854L367.873 42.848ZM357.649 43.232L356.431 45.9734L357.649 43.232ZM353.953 40.544L351.653 42.4707L351.682 42.5043L351.711 42.5371L353.953 40.544ZM351.649 36.368L354.489 35.4023L354.489 35.4023L351.649 36.368ZM351.697 24.752L354.52 25.7682L354.523 25.7593L354.526 25.7505L351.697 24.752ZM354.193 20.528L356.402 22.5579L356.415 22.5432L356.429 22.5284L354.193 20.528ZM358.033 17.744L359.229 20.4952L359.243 20.4892L359.257 20.483L358.033 17.744ZM368.497 18.176L366.907 20.72L366.926 20.732L366.946 20.7437L368.497 18.176ZM372.097 22.256L374.799 20.9531L374.799 20.9531L372.097 22.256ZM373.489 28.784L374.48 31.6156L376.543 30.8937L376.488 28.709L373.489 28.784ZM372.529 29.12H369.529V33.3484L373.52 31.9516L372.529 29.12ZM372.529 17.504V14.504H369.529V17.504H372.529ZM379.441 17.504H382.441V14.504H379.441V17.504ZM377.617 48.8L375.048 47.2505L375.048 47.2505L377.617 48.8ZM372.097 53.216L371.04 50.4085L371.027 50.4131L372.097 53.216ZM368.257 36.272L366.8 33.6495L366.779 33.6613L366.758 33.6734L368.257 36.272ZM370.321 34.208L372.926 35.6964L372.937 35.6769L372.948 35.6572L370.321 34.208ZM370.273 26.576L367.692 28.1054L367.713 28.1402L367.734 28.1744L370.273 26.576ZM368.209 24.608L369.59 21.9447L369.59 21.9447L368.209 24.608ZM362.353 24.752L360.796 22.1876L360.775 22.2003L360.754 22.2133L362.353 24.752ZM360.289 27.056L357.623 25.6801L357.605 25.7145L357.588 25.7493L360.289 27.056ZM360.289 34.016L357.606 35.3576L357.623 35.3929L357.642 35.4278L360.289 34.016ZM362.353 36.224L360.824 38.8049L360.844 38.817L360.865 38.8287L362.353 36.224ZM362.977 51.608C361.738 51.608 360.446 51.5627 359.101 51.4709L358.693 57.4571C360.164 57.5573 361.592 57.608 362.977 57.608V51.608ZM359.106 51.4713C357.787 51.3793 356.612 51.258 355.577 51.1102L354.729 57.0498C355.934 57.222 357.255 57.3567 358.688 57.4567L359.106 51.4713ZM358.153 54.08V46.784H352.153V54.08H358.153ZM354.812 49.7646C355.985 49.8986 357.277 50.0143 358.688 50.1127L359.106 44.1273C357.764 44.0337 356.561 43.9254 355.494 43.8034L354.812 49.7646ZM358.619 50.1071C360.07 50.2421 361.428 50.312 362.689 50.312V44.312C361.646 44.312 360.476 44.2539 359.175 44.1329L358.619 50.1071ZM362.689 50.312C364.849 50.312 366.818 50.0899 368.486 49.534L366.588 43.842C365.76 44.1181 364.497 44.312 362.689 44.312V50.312ZM368.464 49.5411C370.191 48.9799 371.749 48.0192 372.822 46.4945L367.916 43.0415C367.772 43.2448 367.443 43.5641 366.61 43.8349L368.464 49.5411ZM372.822 46.4945C373.872 45.0028 374.281 43.2496 374.281 41.456H368.281C368.281 42.3504 368.082 42.8052 367.916 43.0415L372.822 46.4945ZM374.281 41.456V36.08H368.281V41.456H374.281ZM373.999 37.3487L375.343 34.4687L369.906 31.9313L368.562 34.8113L373.999 37.3487ZM369.626 33.1143C369.572 35.0214 369.208 36.5438 368.625 37.7561L374.033 40.3559C375.05 38.2402 375.55 35.8586 375.624 33.2857L369.626 33.1143ZM368.635 37.7355C368.081 38.8662 367.322 39.6842 366.338 40.2707L369.408 45.4253C371.432 44.2198 372.977 42.5098 374.023 40.3765L368.635 37.7355ZM366.313 40.2854C365.407 40.8371 364.183 41.192 362.497 41.192V47.192C365.035 47.192 367.395 46.6509 369.433 45.4106L366.313 40.2854ZM362.497 41.192C361.067 41.192 359.875 40.9382 358.867 40.4906L356.431 45.9734C358.303 46.8058 360.343 47.192 362.497 47.192V41.192ZM358.867 40.4906C357.809 40.0202 356.929 39.3761 356.195 38.5509L351.711 42.5371C353.025 44.0159 354.609 45.1638 356.431 45.9734L358.867 40.4906ZM356.252 38.6173C355.52 37.7431 354.925 36.6844 354.489 35.4023L348.809 37.3337C349.461 39.2516 350.402 40.9769 351.653 42.4707L356.252 38.6173ZM354.489 35.4023C354.063 34.1474 353.833 32.7337 353.833 31.136H347.833C347.833 33.3143 348.147 35.3886 348.809 37.3337L354.489 35.4023ZM353.833 31.136V29.984H347.833V31.136H353.833ZM353.833 29.984C353.833 28.4044 354.073 27.0083 354.52 25.7682L348.874 23.7358C348.169 25.6957 347.833 27.7876 347.833 29.984H353.833ZM354.526 25.7505C354.977 24.4711 355.609 23.4213 356.402 22.5579L351.984 18.4981C350.601 20.0027 349.568 21.7689 348.868 23.7535L354.526 25.7505ZM356.429 22.5284C357.233 21.6292 358.16 20.9599 359.229 20.4952L356.837 14.9928C354.961 15.8081 353.329 16.9948 351.957 18.5276L356.429 22.5284ZM359.257 20.483C360.336 20.0007 361.577 19.736 363.025 19.736V13.736C360.825 13.736 358.738 14.1433 356.809 15.005L359.257 20.483ZM363.025 19.736C364.67 19.736 365.922 20.1046 366.907 20.72L370.087 15.632C368 14.3274 365.604 13.736 363.025 13.736V19.736ZM366.946 20.7437C367.93 21.3385 368.755 22.2322 369.395 23.5589L374.799 20.9531C373.711 18.6958 372.136 16.8695 370.048 15.6083L366.946 20.7437ZM369.395 23.5589C370.029 24.8739 370.434 26.6072 370.49 28.859L376.488 28.709C376.416 25.8408 375.893 23.2221 374.799 20.9531L369.395 23.5589ZM372.498 25.9524L371.538 26.2884L373.52 31.9516L374.48 31.6156L372.498 25.9524ZM375.529 29.12V17.504H369.529V29.12H375.529ZM372.529 20.504H379.441V14.504H372.529V20.504ZM376.441 17.504V40.88H382.441V17.504H376.441ZM376.441 40.88C376.441 43.7999 375.893 45.8492 375.048 47.2505L380.186 50.3495C381.773 47.7188 382.441 44.4881 382.441 40.88H376.441ZM375.048 47.2505C374.221 48.621 372.952 49.6884 371.04 50.4085L373.154 56.0235C376.17 54.8876 378.58 53.011 380.186 50.3495L375.048 47.2505ZM371.027 50.4131C369.044 51.1699 366.395 51.608 362.977 51.608V57.608C366.855 57.608 370.286 57.1181 373.166 56.0189L371.027 50.4131ZM365.425 39.992C366.953 39.992 368.424 39.6392 369.756 38.8706L366.758 33.6734C366.426 33.8648 366.008 33.992 365.425 33.992V39.992ZM369.714 38.8945C371.078 38.1363 372.154 37.0462 372.926 35.6964L367.716 32.7196C367.464 33.1618 367.163 33.4476 366.8 33.6495L369.714 38.8945ZM372.948 35.6572C373.751 34.202 374.089 32.5781 374.089 30.896H368.089C368.089 31.7739 367.915 32.358 367.694 32.7588L372.948 35.6572ZM374.089 30.896V29.744H368.089V30.896H374.089ZM374.089 29.744C374.089 28.0565 373.718 26.4168 372.812 24.9776L367.734 28.1744C367.916 28.4632 368.089 28.9355 368.089 29.744H374.089ZM372.854 25.0466C372.065 23.7161 370.969 22.6596 369.59 21.9447L366.828 27.2713C367.177 27.4524 367.457 27.7079 367.692 28.1054L372.854 25.0466ZM369.59 21.9447C368.291 21.2711 366.888 20.936 365.425 20.936V26.936C365.946 26.936 366.399 27.0489 366.828 27.2713L369.59 21.9447ZM365.425 20.936C363.78 20.936 362.207 21.3309 360.796 22.1876L363.91 27.3164C364.291 27.0851 364.766 26.936 365.425 26.936V20.936ZM360.754 22.2133C359.396 23.0689 358.357 24.258 357.623 25.6801L362.955 28.4319C363.245 27.87 363.582 27.5231 363.951 27.2907L360.754 22.2133ZM357.588 25.7493C356.873 27.2283 356.569 28.8611 356.569 30.56H362.569C362.569 29.5709 362.745 28.8677 362.989 28.3627L357.588 25.7493ZM356.569 30.56C356.569 32.255 356.872 33.8894 357.606 35.3576L362.972 32.6744C362.746 32.2226 362.569 31.553 362.569 30.56H356.569ZM357.642 35.4278C358.39 36.8306 359.448 37.9896 360.824 38.8049L363.882 33.6431C363.53 33.4344 363.212 33.1214 362.936 32.6042L357.642 35.4278ZM360.865 38.8287C362.265 39.6289 363.813 39.992 365.425 39.992V33.992C364.733 33.992 364.233 33.8431 363.841 33.6193L360.865 38.8287ZM393.53 31.712H390.53V34.712H393.53V31.712ZM393.53 8.96V5.96H390.53V8.96H393.53ZM402.458 8.96H405.458V5.96H402.458V8.96ZM402.458 31.712V34.712H405.458V31.712H402.458ZM392.906 44H389.906V47H392.906V44ZM392.906 35.648V32.648H389.906V35.648H392.906ZM403.082 35.648H406.082V32.648H403.082V35.648ZM403.082 44V47H406.082V44H403.082ZM396.53 31.712V8.96H390.53V31.712H396.53ZM393.53 11.96H402.458V5.96H393.53V11.96ZM399.458 8.96V31.712H405.458V8.96H399.458ZM402.458 28.712H393.53V34.712H402.458V28.712ZM395.906 44V35.648H389.906V44H395.906ZM392.906 38.648H403.082V32.648H392.906V38.648ZM400.082 35.648V44H406.082V35.648H400.082ZM403.082 41H392.906V47H403.082V41Z" fill="black" mask="url(#path-1-outside-1_1611_651)"/>
</svg>
