<svg width="52" height="52" viewBox="0 0 52 52" fill="none" xmlns="http://www.w3.org/2000/svg">
<circle cx="26" cy="26" r="26" fill="black"/>
<path d="M26.2117 44.96C22.9477 44.96 20.1957 44.448 17.9557 43.424C15.7477 42.4 14.0677 41.008 12.9157 39.248C11.7957 37.456 11.2357 35.408 11.2357 33.104H19.8757C19.8757 33.936 20.0997 34.704 20.5477 35.408C21.0277 36.08 21.7317 36.608 22.6597 36.992C23.5877 37.376 24.7717 37.568 26.2117 37.568C27.4597 37.568 28.5157 37.408 29.3797 37.088C30.2757 36.768 30.9477 36.32 31.3957 35.744C31.8757 35.168 32.1157 34.48 32.1157 33.68C32.1157 32.656 31.6837 31.872 30.8197 31.328C29.9557 30.752 28.4997 30.384 26.4517 30.224L24.1957 30.032C20.5797 29.712 17.6997 28.576 15.5557 26.624C13.4117 24.672 12.3397 22.08 12.3397 18.848C12.3397 16.544 12.8677 14.576 13.9237 12.944C15.0117 11.312 16.5317 10.064 18.4837 9.2C20.4357 8.336 22.7397 7.904 25.3957 7.904C28.2757 7.904 30.7077 8.384 32.6917 9.344C34.7077 10.304 36.2437 11.664 37.2997 13.424C38.3557 15.152 38.8837 17.168 38.8837 19.472H30.2437C30.2437 18.704 30.0517 18 29.6677 17.36C29.2837 16.72 28.7237 16.224 27.9877 15.872C27.2837 15.488 26.4197 15.296 25.3957 15.296C24.4357 15.296 23.6197 15.456 22.9477 15.776C22.3077 16.064 21.8117 16.48 21.4597 17.024C21.1397 17.568 20.9797 18.176 20.9797 18.848C20.9797 19.744 21.2837 20.512 21.8917 21.152C22.4997 21.792 23.5557 22.176 25.0597 22.304L27.3157 22.496C29.9397 22.72 32.2597 23.296 34.2757 24.224C36.2917 25.12 37.8757 26.352 39.0277 27.92C40.1797 29.488 40.7557 31.408 40.7557 33.68C40.7557 35.952 40.1637 37.936 38.9797 39.632C37.8277 41.328 36.1637 42.64 33.9877 43.568C31.8437 44.496 29.2517 44.96 26.2117 44.96Z" fill="white"/>
</svg>
